<?xml version="1.0" encoding="utf-8"?>
<!-- Generator: Adobe Illustrator 19.2.0, SVG Export Plug-In . SVG Version: 6.00 Build 0)  -->
<svg version="1.1" id="Layer_1" xmlns="http://www.w3.org/2000/svg" xmlns:xlink="http://www.w3.org/1999/xlink" x="0px" y="0px"
	 viewBox="0 0 522.6 284.2" style="enable-background:new 0 0 522.6 284.2;" xml:space="preserve">
<style type="text/css">
	.st0{fill:#C01E23;}
	.st1{fill:#FFFFFF;}
</style>
<path class="st0" d="M422.2,55.9c5.7,6.7,16.4,4.2,24.7,1.2c12.5-4.6,25.1-9.2,37.6-13.8c9.3,15.3,15.1,32.7,16.8,50.5
	c-17.8-2.8-33.6,19.8-24.9,35.5c4.1,1.3,8.6,0.9,12.4-1.1c6.7,1.9,7.9,11.7,3.7,17.2c-4.2,5.5-11.5,7.5-18.3,8.8
	c-32.3,6.1-65.7,3.2-97.9,9.8c-34.7,7.1-66.6,25.1-101.5,31.4c-32,5.8-64.9,1.5-97.1-2.9c-53.5-7.2-107.1-14.4-160.6-21.6
	c-5.2-0.7-11.9-6.4-7.6-9.4c8.7,1.3,17.7,2.5,26-0.3s15.4-11.3,13.6-19.8c-7.8,1.7-16,3.4-23.7,1.1c-7.7-2.2-14.5-9.8-13-17.6
	c1.8-9.2,13.7-16.2,10.6-25c-1.9-5.2-8.1-7.3-11.9-11.4C4,80.6,8.9,67,18,61.4s20.5-5.4,31.1-5c35.3,1.2,70.7,2.4,106,3.6
	c6.5,0.2,13.3,0.4,19.2-2.5c8.7-4.3,13-14.1,19.3-21.5c17.2-20.8,47.8-22.9,74.7-23.4c35.2-0.7,70.4-1.3,105.5-2
	c17.9-0.3,41.1,3.3,44.7,20.8C420.2,39.7,416.7,49.5,422.2,55.9z"/>
<path class="st1" d="M393.6,64.2c4.8,5.5,13.6,3.5,20.5,1c10.4-3.8,20.8-7.6,31.2-11.4c7.7,12.7,12.5,27.1,13.9,41.9
	c-14.7-2.3-27.9,16.4-20.7,29.5c3.4,1.1,7.1,0.7,10.3-0.9c5.5,1.5,6.6,9.7,3.1,14.3c-3.5,4.5-9.5,6.2-15.2,7.3
	c-26.8,5-54.5,2.6-81.2,8.1c-28.8,5.9-55.3,20.9-84.2,26.1c-26.5,4.8-53.8,1.2-80.5-2.4c-44.4-6-88.8-11.9-133.2-17.9
	c-4.3-0.6-9.9-5.3-6.3-7.8c7.2,1.1,14.7,2.1,21.6-0.3c6.9-2.4,12.8-9.3,11.3-16.5c-6.5,1.4-13.3,2.8-19.7,0.9s-12-8.1-10.8-14.6
	c1.5-7.6,11.4-13.4,8.8-20.7c-1.5-4.3-6.8-6-9.8-9.4c-5.9-6.6-1.9-17.9,5.7-22.6c7.5-4.6,17-4.5,25.8-4.2c29.3,1,58.6,2,87.9,3
	c5.4,0.2,11.1,0.3,15.9-2.1c7.2-3.6,10.8-11.7,16-17.9c14.3-17.2,39.6-19,62-19.4c29.2-0.5,58.4-1.1,87.5-1.6
	c14.9-0.3,34.1,2.7,37.1,17.3C391.9,50.7,389.1,58.9,393.6,64.2z"/>
<g>
	<g>
		<g>
			<path d="M34.8,81.4c1.1,0,2.2,0,3.3,0.2c2,0.4,4.4,0.4,6.3-0.5c3-1.4,5.8-4.8,4.5-8.2c-1.9-5.1-9.5-7.2-14.2-8.3
				c-2.4-0.6-6.1-1.7-8,0.4c-1,1.1-2,2.9-2.4,4.3c-0.7,2.5-0.5,7,1.7,8.7c1.6,1.3,3.6,2.8,5.7,3.3C32.6,81.5,33.7,81.4,34.8,81.4z"
				/>
		</g>
		<g>
			<path d="M504.8,86.3c-1.2-1-2.9-1.6-4.4-1.8c-0.4-11.5-4.5-23.3-4.5-23.3s2.3-13.3,1.2-14.4c-1.4-1.4-21.3,4.1-35.7,7.6
				c-3.5,0.9-10.6,1.6-19.5,2.3c-4.5-8.5-23.1-29.4-27.9-33.5C398.5,10,376,8.8,355.5,8c-21.1-0.8-78.7-0.1-97.9,3.5
				c-15,2.8-44.5,6.6-52,16.6l0,0c0.4-0.4,0.8-0.7,1.1-0.9c6.3-4.1,34.8-9.1,46.7-10.9c20.2-3.1,40.7-1.6,52.1,5.4
				c7.4,0,34.1,0,49.4,1c14.7,0.9,41.8-0.6,53,13.2c3.1,3.8,13.6,17.6,17,22.1c-1.6,0.1-3.3,0.2-4.9,0.3c-3.7-4.9-11.6-15.2-16-20.7
				c-10.1-12.7-33.5-11.5-48.2-12.1c-14.6-0.6-37.1-1.1-46.9-1.3c0.2,0.2,0.4,0.3,0.5,0.5c15,14.4,15.3,17.9,29.2,35.9
				c-2.5-0.2-5.1-0.4-7.7-0.6c-9.3-19-20.9-30.6-26.7-34.8c-10.9-7.8-31.9-9-51.6-5.9c-1.4,0.2-2.9,0.4-4.3,0.7l0.9,1.9
				c0,0,7.6-0.7,8.6,0c1.3,0.9,1.8,5.2,1.3,5.8c-0.9,1.1-19.6,2.5-20.7,2c-1-0.6-1.8-5.2-0.9-6.1c0.7-0.6,7.9-1.3,7.9-1.3l0.5-1.9
				c-16,2.4-33.8,4.7-38.8,7.8c-3.8,2.4-19.8,30.9-20.1,32.3c-0.4,0.2-0.4,0.2-0.8,0.3c-0.6-1.7-1.3-3.3-1.6-3.9
				c-1.5-2.4-3.2-3-5.9-3c-2.9,0-5.3,1.9-4.2,5.1c0.6,1.8,1.6,2.6,2.8,3.3c-28.6,0.2-78.8-1.9-98.8-4.1c-10.5-1.2-21.3-1.6-32-1.1
				c-6.1,0.3-20.4,0-23.5,7l0,0c-0.3,0.5-0.5,1-0.6,1.6c-0.9,3.8,0.2,8.3,0.9,12.1c0.1,0.1,0.2,0.1,0.3,0.2c2.6,1.4,4.8,4,7.8,4.7
				c1.4,0.3,3.2-0.2,4.7-0.2C40,82.3,44,82,47.9,81.9c0.2,0,0.4,0,0.5,0c-2,0.8-5.7,1.4-13.5,1.8c-1.5,0.1-3.3,0.6-4.7,0.2
				c-2.5-0.6-4.4-2.5-6.5-4c1,5.7,1.9,12,5.3,16.8c1.8,2.6,4.1,5,5.4,8c1.2,2.8,1.3,5.9,1.2,9c0,0-21.2,4.5-13,14.1
				c4.5,5.3,21.2,9.5,43.3,13.1c5,14.6,15.3,24.6,27.2,24.6c10,0,18.9-7.1,24.4-18c2,0.2,4,0.4,6,0.6c59,6.3,105.2,11,115.3,9.4
				c3.4-0.6,6.7-1.2,9.7-1.9c0.1,0.4,0.2,0.9,0.3,1.5c2.2,9.9,7.6,20.1,16.1,26c3.8,2.7,8.9,4.4,13.6,4.4
				c16.4,0,29.9-18.2,31.6-41.5l7.3-1l115.5-16.8c2.8,12.2,10.2,20.9,19,20.9c11.1,0,20.2-14.2,20.2-31.8c0-1.2,0-2.3-0.1-3.5
				c2.8,1,5.9,2,5.9,2s7.7-1.6,18.4-6.7c3.2-1.5,6.2-5.1,7.5-8.4C504.8,97.1,507.4,88.5,504.8,86.3z M25.1,70.5
				c0.3-0.9,0.7-1.9,1.4-2.5c0.4-0.3,0.9-0.5,1.4-0.5s1.1,0.2,1.5,0.5c0.7,0.6,1.2,1.5,1.5,2.3s0.5,1.9-0.6,2.2
				c-0.8,0.2-1.8,0.4-2.6,0.3c-0.6-0.1-1.3-0.1-1.9-0.3c-0.4-0.1-0.7-0.1-0.8-0.5v-0.1C24.8,71.4,24.9,70.9,25.1,70.5z M27.9,78.1
				c-2.2,0-3.2-2.7-3-2.9c0.2-0.2,1,1.5,3,1.5c1.8,0,3-1.9,3.1-1.6S29.8,78.1,27.9,78.1z M34.7,77.3c-0.3,0.7-0.9,1.3-1.5,1.7
				c-0.4,0.3-0.9,0.4-1.4,0.5c-0.2,0-0.5,0-0.7,0.1c-0.1,0-0.4,0.1-0.5-0.1s0.2-0.3,0.3-0.4c0.2-0.1,0.4-0.3,0.6-0.5
				c0.3-0.3,0.5-0.6,0.7-1c0.1-0.2,0.2-0.3,0.2-0.5s0.1-0.4,0.3-0.4c0.2-0.1,0.5,0,0.7,0c0.3,0,0.6-0.1,0.9-0.1c0.2,0,0.5,0,0.5,0.2
				C34.9,76.9,34.8,77.1,34.7,77.3z M33.3,71.7c0-0.5-0.1-1-0.2-1.4c-0.2-0.9-0.7-1.6-1.2-2.3c-0.2-0.2-0.4-0.4-0.6-0.7
				c-0.2-0.2-0.3-0.3-0.5-0.4c-0.1-0.1-0.3-0.2-0.3-0.3c0-0.1,0-0.1,0-0.1c0.1-0.1,0.2-0.1,0.4-0.1c0.3,0,0.5,0,0.8,0s0.7,0,1,0.1
				c0.9,0.3,1.9,1.4,2.5,2.8s0.6,2.9,0.6,2.9S33.3,72.6,33.3,71.7z M36.9,73.9c0.2-0.7,0.6-1.4,1.1-1.9c0.3-0.2,0.7-0.4,1.1-0.4
				c0.4,0,0.9,0.2,1.2,0.4c0.6,0.4,0.9,1.2,1.2,1.8c0.3,0.7,0.4,1.5-0.5,1.7c-0.7,0.2-1.4,0.3-2.1,0.2c-0.5,0-1-0.1-1.5-0.2
				c-0.3-0.1-0.5-0.1-0.6-0.4V75C36.7,74.7,36.8,74.3,36.9,73.9z M39.1,79.9c-1.7,0-2.5-2.1-2.3-2.2s0.8,1.2,2.3,1.2
				c1.4,0,2.3-1.5,2.4-1.3C41.6,77.8,40.6,79.9,39.1,79.9z M44.4,79.1c-0.2,0.5-0.6,1-1.1,1.3c-0.3,0.2-0.7,0.3-1,0.4
				c-0.2,0-0.3,0-0.5,0c-0.1,0-0.3,0-0.4-0.1c-0.1-0.2,0.2-0.2,0.3-0.3c0.1-0.1,0.3-0.2,0.4-0.4c0.2-0.2,0.4-0.5,0.5-0.8
				c0.1-0.1,0.1-0.3,0.1-0.4s0.1-0.3,0.2-0.3c0.2-0.1,0.3,0,0.5,0s0.4,0,0.7,0c0.1,0,0.4,0,0.4,0.1C44.6,78.8,44.5,79,44.4,79.1z
				 M43.4,74.8c0-0.4-0.1-0.7-0.2-1.1c-0.2-0.7-0.5-1.2-0.9-1.8c-0.1-0.2-0.3-0.3-0.4-0.5c-0.1-0.1-0.2-0.2-0.3-0.3
				c-0.1-0.1-0.2-0.1-0.3-0.3v-0.1c0.1-0.1,0.2-0.1,0.3-0.1c0.2,0,0.4,0,0.6,0c0.2,0,0.5,0,0.7,0.1c0.7,0.2,1.4,1.1,1.9,2.2
				s0.5,2.2,0.5,2.2S43.4,75.5,43.4,74.8z M468.7,56.5c0.5-1.1,25.9-7,25.9-7c-0.3,4-1.1,7.2-2.4,11.1
				C482.7,60.3,467.8,58.9,468.7,56.5z M338.2,38.2c4.8-4.5,44.8-4.3,54.8-3.4c6.6,0.6,15.6,15.3,21.7,23.8
				c-24.4,1.3-50.4,2.2-58.3,2.6c-0.5,0-1,0-1.5,0.1C346.5,53.3,334.6,41.6,338.2,38.2z M374.8,66.5c10.4-0.4,20.7-0.9,30.5-1.3
				c0,1.3,0.3,3.2,0.8,3.7c0.6,0.6,11.9-0.3,12.8-0.8c0.6-0.4,0.5-2.3,0.2-3.6c1.3-0.1,2.6-0.1,3.9-0.2c1.3,6.2,3.2,17,3.4,24.9
				c-9.6-0.6-23.8-1-39.2,0.5c-16.7,1.5-32.8,4.6-45.6,7.7c-0.2-6.3-1.4-14.4-2.6-21.3c29-1.2,54.6-2.5,54.6-3.2
				c0-0.5-25.3-0.4-55.1-0.1c-0.4-2.4-0.8-4.5-1.2-6.3C353.2,67.1,368.7,66.8,374.8,66.5z M334.8,66.3c0.4,1.8,0.8,4,1.3,6.4
				c-39.3,0.4-85.2,1.1-91.5,1.2c0,0,0,0-0.1,0c3-2.2,6.4-3.9,9.9-5.2c5.7-2.1,12.5-3.3,18.5-4.5c7.7-1.5,18.7-0.8,22.8-0.8
				c6,0,15.5,0.8,25.6,1.9C325.7,65.7,330.2,66,334.8,66.3z M298.7,57.3c-1.3-0.1-2.6-0.1-3.7-0.2c-7.5-0.3-15.8-0.8-24.1-1.2
				c2.6-3,5.8-5.1,9.4-5.9c1.6-0.3,3.2-0.4,4.9-0.3C290.3,50.3,295,53,298.7,57.3L298.7,57.3z M204.2,36.1c2.5-1.9,14-2.6,17.3-2.7
				c8.3-0.1,67,0.1,74.5,0.6c3.6,0.2,9.2,0.4,12.6,1.9c5.9,2.6,14.9,15.9,18.6,23.7c-8.4-0.8-17.3-1.5-24.3-2
				c-4.5-6.2-10.7-10.3-17.4-11c-1.9-0.2-3.9-0.1-5.8,0.3c-5,1.1-9.4,4.2-12.6,8.8C256,55.2,245,54.9,235.9,55
				c-14,0.3-25.9-0.2-30.8,0.2c-3.8,0.3-8.5,1.5-14.4,3.7C195.2,50.6,202.3,37.6,204.2,36.1z M197.2,84.8c2.6,0,4.4-2.8,4.6-2.4
				c0.2,0.3-1.7,4.3-4.6,4.3c-3.2,0-4.6-4-4.4-4.2C193.1,82.3,194.2,84.8,197.2,84.8z M193.1,75.6c0.4-1.3,1-2.7,2.1-3.6
				c0.5-0.5,1.3-0.8,2-0.8s1.6,0.3,2.2,0.7c1.1,0.8,1.7,2.2,2.2,3.4c0.5,1.2,0.7,2.7-0.9,3.2c-1.2,0.4-2.6,0.5-3.9,0.4
				c-0.9-0.1-1.8-0.1-2.7-0.4c-0.5-0.2-1-0.2-1.2-0.7c0-0.1,0-0.1-0.1-0.2C192.7,76.9,192.9,76.2,193.1,75.6z M201.7,88.2
				c0.3-0.2,0.5-0.4,0.8-0.7c0.4-0.4,0.7-0.9,1-1.5c0.1-0.2,0.2-0.5,0.3-0.8c0-0.3,0.2-0.5,0.4-0.6c0.3-0.1,0.7,0,1-0.1
				c0.4,0,0.8-0.1,1.2-0.1c0.2,0,0.7,0,0.8,0.3s-0.1,0.6-0.2,0.8c-0.4,1-1.2,1.9-2.1,2.5c-0.6,0.4-1.2,0.6-1.9,0.8
				c-0.3,0.1-0.7,0.1-1,0.1c-0.2,0-0.6,0.1-0.7-0.2C201.1,88.4,201.5,88.3,201.7,88.2z M205,77.4c0-0.7-0.1-1.4-0.3-2.1
				c-0.3-1.2-0.9-2.3-1.7-3.3c-0.2-0.3-0.5-0.6-0.8-1c-0.2-0.2-0.4-0.4-0.6-0.6c-0.2-0.1-0.5-0.3-0.5-0.5c0-0.1,0-0.1,0.1-0.2
				s0.4-0.1,0.5-0.1c0.4,0,0.8,0,1.1,0c0.5,0,1,0,1.4,0.2c1.3,0.5,2.6,2,3.5,4.1c0.9,2,0.9,4.2,0.9,4.2S205,78.8,205,77.4z
				 M206.8,67.9c-3.2-2.7-9.4-2.7-9.4-2.7s7.8-2.4,11.4,0.5c1.2,0.9,4.4,4.4,7.5,6.3c3.2,1.9,9,3.2,9,3.2s-5.5,0-10.3-1.7
				C211.9,72.2,209.6,70.3,206.8,67.9z M182.6,74.5c0.1-0.1,0.3-0.1,0.4-0.1c0.3,0,0.6,0,0.9,0c0.4,0,0.8,0,1.1,0.1
				c1,0.4,2.1,1.6,2.8,3.2s0.7,3.3,0.7,3.3s-2.8,0.6-2.8-0.5c0-0.5-0.1-1.1-0.2-1.6c-0.3-1-0.7-1.8-1.3-2.6
				c-0.2-0.3-0.4-0.5-0.6-0.7c-0.2-0.2-0.3-0.3-0.5-0.5c-0.1-0.1-0.4-0.2-0.4-0.4C182.6,74.5,182.6,74.5,182.6,74.5z M187.2,86.9
				c-0.3,0.8-0.9,1.5-1.6,2c-0.5,0.3-1,0.5-1.5,0.6c-0.3,0-0.5,0-0.8,0.1c-0.2,0-0.5,0.1-0.6-0.1s0.2-0.3,0.4-0.4
				c0.2-0.2,0.4-0.3,0.6-0.5c0.3-0.3,0.6-0.7,0.8-1.1c0.1-0.2,0.2-0.4,0.2-0.6s0.1-0.4,0.3-0.5s0.5,0,0.8,0s0.7-0.1,1-0.1
				c0.2,0,0.5,0,0.6,0.2C187.4,86.5,187.2,86.7,187.2,86.9z M176.5,79.2c0.3-1,0.8-2.1,1.7-2.9c0.4-0.4,1-0.6,1.6-0.6
				s1.3,0.2,1.7,0.6c0.8,0.6,1.4,1.7,1.7,2.7c0.4,1,0.6,2.2-0.7,2.5c-1,0.3-2,0.4-3.1,0.3c-0.7-0.1-1.5-0.1-2.2-0.3
				c-0.4-0.1-0.8-0.1-0.9-0.6c0-0.1,0-0.1,0-0.2C176.1,80.3,176.3,79.7,176.5,79.2z M176.2,84.8c0.3-0.2,1.1,1.8,3.5,1.8
				c2,0,3.5-2.2,3.6-1.9c0.1,0.3-1.4,3.4-3.6,3.4C177.2,88.1,176,84.9,176.2,84.8z M65.5,73.4c3.1-4.8,7.9-7.4,13.2-8
				c8-0.9,93.6-0.4,97.5,0.1c-0.9,0.4-12.1,5.9-15.1,9.7c-2.8,3.5-30,5.8-51.3,4.8C86.5,78.9,64.6,74.8,65.5,73.4z M111.9,86.8
				l-2.7,3.9l-2.9-4.1l2.8-4.1L111.9,86.8z M109.5,92.6c19.2,0.4,37.4-1.5,53.4-5.1c-15,6.4-33.3,9.5-53.3,9.1
				c-19.9-0.4-38.5-4.3-53.2-11.3C72.2,89.6,90.3,92.2,109.5,92.6z M59.7,102.3c4.9-2.9,35.3-3.7,51.5-3c11.2,0.5,45.7,1.8,56.2,6.7
				c9.6,4.5,25.9,24.2,30.1,29.3l-4-0.4c-5.5-6.6-19.1-22.5-26.7-26.8c-5.5-3.1-27.5-5.4-55.8-6.6c-27-1.2-46.9,0.4-50.3,2.3
				c-6.1,3.4-10.6,13-13,18.4l-1.6-0.1C48.1,117.4,53.4,106.1,59.7,102.3z M181.3,128.3v1.2c0,1.4-1.1,2.4-2.5,2.3h-0.5
				c-1.4-0.1-2.5-1.3-2.5-2.7v-6.6c0-1.4,0.8-1.7,1.7-0.7c0.7,0.7,1.4,1.5,2,2.2C180.6,125,181.3,127,181.3,128.3z M172.1,118.9v9.9
				c0,1.4-1.1,2.4-2.5,2.3h-0.5c-1.4-0.1-2.5-1.3-2.5-2.7v-13.8c0-1.4,0.9-1.9,2-1c0.5,0.4,1,0.8,1.6,1.3
				C171.3,115.6,172.1,117.5,172.1,118.9z M163,112.7V128c0,1.4-1.1,2.4-2.5,2.3H160c-1.4-0.1-2.5-1.3-2.5-2.7v-16.1
				c0-1.4,1.1-2.3,2.4-2c0.2,0.1,0.4,0.1,0.6,0.1C161.9,109.9,163,111.4,163,112.7z M153.8,110.7v16.4c0,1.4-1.1,2.4-2.5,2.3h-0.5
				c-1.4-0.1-2.5-1.3-2.5-2.7v-16.8c0-1.4,1.1-2.3,2.5-2.1c0.2,0,0.3,0.1,0.5,0.1C152.7,108.1,153.8,109.4,153.8,110.7z
				 M144.6,109.4v16.9c0,1.4-1.1,2.4-2.5,2.3h-0.5c-1.4-0.1-2.5-1.3-2.5-2.7v-17.1c0-1.4,1.1-2.4,2.5-2.2c0.2,0,0.3,0,0.5,0.1
				C143.5,106.8,144.6,108.1,144.6,109.4z M135.5,108.5v17.1c0,1.4-1.1,2.4-2.5,2.3h-0.5c-1.4-0.1-2.5-1.3-2.5-2.7V108
				c0-1.4,1.1-2.4,2.5-2.3c0.2,0,0.3,0,0.5,0C134.4,105.9,135.5,107.1,135.5,108.5z M126.3,107.7v17c0,1.4-1.1,2.4-2.5,2.3h-0.5
				c-1.4-0.1-2.5-1.3-2.5-2.7v-16.9c0-1.4,1.1-2.4,2.5-2.3c0.2,0,0.3,0,0.5,0C125.2,105.2,126.3,106.4,126.3,107.7z M117.1,107.2
				V124c0,1.4-1.1,2.4-2.5,2.3h-0.5c-1.4-0.1-2.5-1.3-2.5-2.7V107c0-1.4,1.1-2.4,2.5-2.4c0.2,0,0.3,0,0.5,0
				C116,104.6,117.1,105.8,117.1,107.2z M108,106.7v16.4c0,1.4-1.1,2.4-2.5,2.3H105c-1.4-0.1-2.5-1.3-2.5-2.7v-16.1
				c0-1.4,1.1-2.5,2.5-2.4c0.2,0,0.3,0,0.5,0C106.8,104.2,108,105.4,108,106.7z M98.8,106.5v15.9c0,1.4-1.1,2.4-2.5,2.3h-0.5
				c-1.4-0.1-2.5-1.3-2.5-2.7v-15.5c0-1.4,1.1-2.5,2.5-2.4c0.2,0,0.3,0,0.5,0C97.7,103.9,98.8,105.1,98.8,106.5z M89.6,106.3v15.2
				c0,1.4-1.1,2.4-2.5,2.3h-0.5c-1.4-0.1-2.5-1.3-2.5-2.7v-14.7c0-1.4,0.8-2.5,1.7-2.5c0.6,0,1.1,0,1.7,0c0.3,0,0.7,0,1,0
				C89.2,103.8,89.6,104.9,89.6,106.3z M80.5,106.4v14.4c0,1.4-1.1,2.4-2.5,2.3h-0.5c-1.4-0.1-2.5-1.3-2.5-2.7v-13.7
				c0-1.4,1.1-2.5,2.5-2.6c0.2,0,0.3,0,0.5,0C79.3,103.9,80.5,105,80.5,106.4z M71.3,106.8V120c0,1.4-1.1,2.4-2.5,2.3h-0.5
				c-1.4-0.1-2.5-1.3-2.5-2.7v-12.2c0-1.4,1.1-2.6,2.5-2.8c0.2,0,0.3,0,0.5,0C70.2,104.4,71.3,105.4,71.3,106.8z M62.1,108.3v10.9
				c0,1.4-1.1,2.4-2.5,2.3h-0.5c-1.4-0.1-2.5-1.3-2.5-2.7v-5.2c0-1.4,0.7-3.4,1.6-4.4c0.6-0.7,1.2-1.3,1.9-1.8
				C61.2,106.4,62.1,106.9,62.1,108.3z M35.4,113.7c-0.1,1.2-0.2,2.4-0.3,3.6L35.4,113.7z M99.6,158.5c-7.3,0-13.9-6.1-17.9-15.4
				c10.7,1.5,22.1,2.8,33.7,4.1C111.4,154.2,105.8,158.5,99.6,158.5z M237.6,145c-10,0.9-17.1,0-23.5-0.6
				c-7.9-0.7-176.3-18.1-182.5-19.5c-5.5-1.3-5.8-2.5-5.4-4.8c0.4-2.7,7.1-4.2,7.1-4.2s-5.4,1.9-5.3,4.7c0.1,1.6,2.5,2.2,6,2.8
				c3.8,0.7,134.3,13.6,183.7,17.4c10.5,0.8,14.1,1.6,21.5,0.8c8.1-0.8,16-3.9,16-3.9S248.3,144,237.6,145z M285.3,180.2
				c-12.8,0-23.2-17.6-23.2-39.3s10.4-39.3,23.2-39.3c12.8,0,23.2,17.6,23.2,39.3C308.4,162.7,298.1,180.2,285.3,180.2z M314,104.9
				c0,0-10.8-19.5-30.1-18.9c-7.1,0.2-13.5,3-19.1,8.2c-9,8.4-12.7,31-12.7,31s-11.6-6.7-17.5-21.6c-3.6-9.2-3-11.9-0.4-17.4
				c0.5-1.1,1.1-2.1,1.8-3.2c-15.1,1.1-16.7,7.4-28.7,12.7c-6,2.7-28.6-2.2-33.9-7.5c0,0,0,0-0.1-0.1c6.7,5.8,27.5,5,30.2,4.9
				c2.5-0.1,6.1-0.9,8.2-2.6c1.9-1.6,3.6-3.4,5.7-4.9c6.6-4.7,14.1-5,22-5.5c6.3-0.4,12.6-0.5,18.9-0.9c3.5-0.2,43.1-1.6,78.6-3.1
				c1.2,7,2.4,15.3,2.5,21.8C324,101.5,314,104.9,314,104.9z M321.8,135.4c-0.8-3.3-1.9-7.8-3.1-12.4c0.2-0.1,0.5-0.2,0.7-0.3
				c5.8-2.4,11.7-4.6,17.6-6.6c-1.1,6.8-2.4,13.1-3.4,17.5C328.9,134.4,324.8,135,321.8,135.4z M336.3,133.3c1-4.8,2.3-11.5,3.4-18
				c10.6-3.5,21.5-6.2,32.5-8c17.6-2.2,35.3-4.1,53-5.3c-1,6.9-2.4,13.7-3.3,18.1C400.9,123.5,360.7,129.6,336.3,133.3z
				 M430.3,118.6c-1.7,0.3-3.8,0.7-6.1,1.1c0.9-4.7,2.3-11.7,3.3-17.8c2.2-0.1,4.4-0.3,6.6-0.4C432.6,106.1,431.3,111.8,430.3,118.6
				z M456.1,144.1c-8.1,0-14.7-12-14.7-26.9s6.6-26.9,14.7-26.9s14.7,12,14.7,26.9S464.2,144.1,456.1,144.1z M475.8,88.8
				c0,0-7.3-10.5-18.3-10.1C443.7,79.2,439,90.3,439,90.3s-3.9-0.5-10.3-1c-0.3-7.8-2.3-18.9-3.5-25.2c4.6-0.3,9-0.5,13-0.8
				c10.2,3.6,15.2,4.4,29.9,7.7c10.7,2.4,27.2-0.2,27.2-0.2s2,4.6,2,10.7C496.7,81.8,475.8,88.8,475.8,88.8z M503,89.6
				c-2,1.3-13,6.1-15.7,8.4c-2.5,2.1-2.9,4.1-3.8,6.8c-0.2-2.2,0.5-5.2,1.8-7c2.8-3.5,15.1-8.5,17-9.6c1.3-0.8-1.3-3.3-1.3-3.3
				C502,85.2,506,87.6,503,89.6z"/>
			<path d="M164,70.2c0,0-40.6,3.4-55,3.7c-14.4,0.3-35.7-1.8-35.7-1.8s12,4.7,38.3,5.5C153.2,78.9,164,70.2,164,70.2z"/>
			<path d="M287.7,119.6c-7.5,0-13.5,9.6-13.5,21.4s6.1,21.4,13.5,21.4c7.5,0,13.5-9.6,13.5-21.4
				C301.2,129.2,295.2,119.6,287.7,119.6z M300,141c0,8.7-4.6,15.8-10.3,15.8c-5.7,0-10.3-7.1-10.3-15.8s4.6-15.8,10.3-15.8
				C295.3,125.2,300,132.2,300,141z"/>
			<path d="M457.6,102.5c-4.8,0-8.6,6.6-8.6,14.7s3.9,14.7,8.6,14.7c4.8,0,8.6-6.6,8.6-14.7S462.4,102.5,457.6,102.5z M465.4,117.2
				c0,6-2.9,10.8-6.6,10.8s-6.6-4.9-6.6-10.8c0-6,2.9-10.8,6.6-10.8S465.4,111.2,465.4,117.2z"/>
		</g>
	</g>
	<g>
		<g>
			<path d="M313,149l117.1-17.1c3.4,11.3,10.7,19,19,20.3c-47.3,10.7-110.9,24.7-157.1,34.6C303.5,179.9,310.7,167.2,313,149z"/>
		</g>
		<g>
			<path d="M71.4,158.1c5.9,6.9,13.4,10.8,21.5,10.8c9.4,0,18.4-5.6,24.8-15.2c0.7-1,1-2.1,1.3-2.8c47.5,5.1,97.5,10.4,113.5,10.4
				c2.9,0,5.1-0.1,6.7-0.4c2.6-0.4,4.7-0.8,6.6-1.2c2.9,11.2,9.1,20.7,17,26.2c3.5,2.4,7.8,4.1,12,4.7c-24.7,5.2-41.4,8.7-43,8.7
				c-16,0.2-208.3-22.6-214.7-30.6C14.4,165.2,39.2,161.5,71.4,158.1z"/>
		</g>
		<g>
			<path d="M472.8,133.2c23.9,1.3,42.5,2.5,41.5,3.3c-0.9,0.8-22.3,5.9-53,12.9C466.3,146.2,470.3,140.5,472.8,133.2z"/>
		</g>
	</g>
</g>
<g>
	<g>
		<g>
			<polygon points="157.6,276.9 381.7,276.9 392.9,213.4 168.8,213.4 			"/>
		</g>
		<g>
			<polygon points="159.2,226.1 117.5,226.1 139.3,251.5 108.5,276.9 150.3,276.9 			"/>
			<polygon points="389.1,276.9 430.8,276.9 409,251.5 439.8,226.1 398,226.1 			"/>
		</g>
	</g>
	<path class="st1" d="M182,248.4c-0.5,0-1-0.1-1.5-0.1s-1,0-1.6,0c-0.3,0-0.6,0-0.9,0c-0.3,0-0.6,0-0.9,0l-2,13.4
		c-0.4-0.1-0.8-0.1-1.2-0.1s-0.9,0-1.3,0c-0.4,0-0.8,0-1.1,0c-0.4,0-0.7,0-1,0s-0.6,0-0.9,0.1c0.7-3.1,1.3-6.1,2-9.1
		c0.6-3,1.2-6,1.7-9.1c0.5-2.9,1-5.8,1.4-8.7s0.8-5.8,1.2-8.7c1.9,0.1,3.7,0.2,5.5,0.2c1.1,0,2.2,0,3.3-0.1s2.3-0.1,3.6-0.2l-1,5.7
		c-1-0.2-2-0.3-2.9-0.4c-1-0.1-2-0.1-2.9-0.1h-1c-0.5,1.8-0.9,3.7-1.2,5.6c-0.4,1.9-0.7,3.8-1.1,5.7l-0.2,1c0.4,0,0.8,0,1.2,0
		s0.8,0,1.3,0c0.4,0,0.8,0,1.2,0s0.8,0,1.2,0L182,248.4z M206.9,225.9c-0.2,3.3-0.5,6.7-1,10.2c-0.5,3.4-1,7-1.7,10.7
		c-0.2,1.3-0.5,2.5-0.8,3.8c-0.3,1.2-0.7,2.4-1.2,3.5s-1,2.2-1.6,3.1c-0.6,1-1.3,1.8-2,2.5s-1.6,1.2-2.5,1.6s-1.9,0.6-3,0.6
		c-1,0-1.8-0.2-2.5-0.6s-1.2-0.9-1.6-1.5c-0.4-0.6-0.7-1.4-0.9-2.3s-0.3-1.8-0.3-2.9c0-1,0-2.1,0.1-3.2c0.1-1.1,0.3-2.2,0.5-3.4
		c0.6-3.4,1.4-6.9,2.2-10.4c0.9-3.5,1.9-7.1,2.9-10.9l5.1,0.1c-0.9,3.5-1.8,7.1-2.7,10.7c-0.9,3.6-1.7,7.3-2.3,11.1
		c-0.2,1.1-0.3,2.1-0.5,3.1c-0.1,1-0.1,1.8-0.1,2.6c0,0.7,0.1,1.3,0.3,1.8c0.2,0.4,0.5,0.7,0.8,0.7c0.4,0,0.9-0.3,1.4-1
		c0.5-0.7,1-1.6,1.4-2.8c0.5-1.1,0.9-2.4,1.3-3.9c0.4-1.5,0.7-2.9,1-4.5c0.3-1.4,0.5-2.9,0.7-4.4s0.5-2.9,0.7-4.4s0.4-3,0.6-4.6
		c0.2-1.6,0.4-3.2,0.5-4.9L206.9,225.9z M220.3,261.6c-0.9,0-1.8-0.1-2.7-0.1s-1.7,0-2.6,0c-1.3,0-2.5,0-3.8,0.1
		c-1.3,0-2.6,0.1-3.9,0.2c0.7-3.1,1.3-6.1,2-9.1c0.6-3,1.2-6,1.7-9.1c0.5-2.9,1-5.8,1.4-8.7s0.8-5.8,1.2-8.7c0.2,0,0.3,0,0.6,0
		c0.2,0,0.4,0,0.7,0s0.6,0,0.9,0c0.5,0,1.1,0,1.7,0c0.6,0,1.2-0.1,1.9-0.1c-0.6,2.4-1.2,4.8-1.8,7.5c-0.5,2.6-1.1,5.2-1.6,7.9
		s-1,5.3-1.5,8c-0.5,2.6-1,5.2-1.4,7.7c1.4,0,2.7-0.1,4-0.2s2.7-0.3,4.1-0.5L220.3,261.6z M237.6,261.6c-0.9,0-1.8-0.1-2.7-0.1
		s-1.7,0-2.6,0c-1.3,0-2.5,0-3.8,0.1c-1.3,0-2.6,0.1-3.9,0.2c0.7-3.1,1.3-6.1,2-9.1c0.6-3,1.2-6,1.7-9.1c0.5-2.9,1-5.8,1.4-8.7
		s0.8-5.8,1.2-8.7c0.2,0,0.3,0,0.6,0c0.2,0,0.4,0,0.7,0s0.6,0,0.9,0c0.5,0,1.1,0,1.7,0c0.6,0,1.2-0.1,1.9-0.1
		c-0.6,2.4-1.2,4.8-1.8,7.5c-0.6,2.6-1.1,5.2-1.6,7.9s-1,5.3-1.5,8c-0.5,2.6-1,5.2-1.4,7.7c1.4,0,2.7-0.1,4-0.2s2.7-0.3,4.1-0.5
		L237.6,261.6z M266.7,252.9c-0.2,1.3-0.6,2.4-1,3.4s-0.9,1.8-1.5,2.5s-1.1,1.3-1.8,1.7s-1.2,0.8-1.8,1.1c-0.6,0.3-1.2,0.4-1.7,0.6
		c-0.5,0.1-1,0.2-1.4,0.2c-0.2,0-0.5,0-0.8,0s-0.7-0.1-1.2-0.2s-0.9-0.2-1.4-0.4c-0.5-0.2-1-0.4-1.6-0.7l1.4-6.2
		c0.8,0.8,1.6,1.4,2.3,1.6c0.7,0.3,1.3,0.4,1.9,0.4c1,0,1.8-0.4,2.5-1.1c0.6-0.7,1.1-1.7,1.3-2.9c0.1-0.8,0.1-1.7-0.1-2.6
		c-0.2-1-0.7-2-1.5-3.2c-0.5-0.8-1.1-1.6-1.7-2.5s-1.1-1.8-1.5-2.7c-0.4-1-0.7-2-0.9-3.1c-0.2-1.1-0.2-2.3,0.1-3.6
		c0.3-1.6,0.8-3.1,1.4-4.3c0.7-1.2,1.4-2.2,2.3-3s1.9-1.4,2.9-1.8c1-0.4,2.1-0.6,3.2-0.6c0.9,0,1.9,0.1,2.8,0.4
		c0.9,0.3,1.8,0.6,2.7,1.2l-1.6,6.2c-0.3-0.5-0.7-1-1.1-1.3s-0.8-0.6-1.2-0.7c-0.4-0.2-0.8-0.3-1.1-0.3c-0.4-0.1-0.7-0.1-0.9-0.1
		c-0.5,0-0.9,0.1-1.4,0.4c-0.4,0.2-0.8,0.6-1.2,1c-0.4,0.4-0.7,0.9-0.9,1.4c-0.3,0.6-0.4,1.1-0.6,1.7c-0.2,0.9-0.1,1.8,0.2,2.5
		c0.3,0.8,0.6,1.5,1.1,2.2s1,1.5,1.6,2.3s1.1,1.7,1.5,2.6c0.4,1,0.7,2.1,0.9,3.3C267,249.7,267,251.2,266.7,252.9z M282.7,248.4
		c-0.5,0-1-0.1-1.5-0.1s-1,0-1.6,0c-0.3,0-0.6,0-0.9,0s-0.6,0-1,0l-1.6,8.8c1.4,0,2.7-0.1,4-0.2s2.7-0.3,4.1-0.5l-0.9,5.1
		c-0.9,0-1.8-0.1-2.7-0.1c-0.9,0-1.7,0-2.6,0c-1.3,0-2.5,0-3.8,0.1c-1.3,0-2.6,0.1-3.9,0.2c0.7-3.1,1.3-6.1,2-9.1
		c0.6-3,1.2-6,1.7-9.1c0.5-2.9,1-5.8,1.4-8.7s0.8-5.8,1.2-8.7c1.9,0.1,3.7,0.2,5.5,0.2c1.1,0,2.2,0,3.3-0.1c1.1-0.1,2.3-0.1,3.6-0.2
		l-1,5.7c-1-0.2-2-0.3-2.9-0.4c-1-0.1-2-0.1-2.9-0.1h-1c-0.5,2.1-1,4.1-1.4,6.1s-0.8,4.1-1.2,6.1c0.4,0,0.8,0,1.3,0
		c0.4,0,0.9,0,1.3,0s0.8,0,1.2,0c0.4,0,0.8,0,1.2,0L282.7,248.4z M306.8,236.8c-0.2,1.1-0.5,2.2-0.9,3.3s-0.9,2.2-1.6,3.2
		c-0.6,1-1.4,2-2.3,2.9s-1.9,1.7-3.1,2.4c0.5,2.3,1.1,4.6,1.8,6.8c0.7,2.2,1.6,4.2,2.6,6.2l-6.2,0.3L295,250c-0.3,2-0.6,4-0.8,6
		c-0.2,2-0.5,3.9-0.7,5.8h-6c0.9-3.7,1.8-7.4,2.5-11.2c0.8-3.7,1.5-7.5,2.2-11.2c0.4-2.2,0.8-4.4,1.1-6.5s0.7-4.4,1-6.6
		c0.9-0.3,1.8-0.4,2.7-0.5c0.9-0.1,1.7-0.1,2.3-0.1c0.4,0,1,0,1.6,0.1s1.2,0.3,1.9,0.6c0.6,0.3,1.3,0.7,1.8,1.2s1.1,1.2,1.5,2
		s0.6,1.8,0.8,3C307.2,233.7,307.1,235.1,306.8,236.8z M295.8,246c0.6-0.2,1.1-0.4,1.6-0.7s0.9-0.7,1.3-1.1c0.4-0.4,0.8-0.8,1.1-1.3
		c0.3-0.5,0.6-0.9,0.8-1.4c0.5-1.1,0.9-2.2,1.2-3.5c0,0,0-0.2,0.1-0.6c0.1-0.4,0.1-0.8,0.1-1.4c0-0.6,0-1.2,0-1.8
		c0-0.7-0.2-1.3-0.3-1.9c-0.2-0.6-0.5-1.2-0.8-1.6c-0.4-0.5-0.9-0.8-1.5-1c-0.7,2.6-1.3,5.1-1.8,7.7c-0.6,2.6-1.1,5.1-1.5,7.7
		L295.8,246z M329.7,226.7c-2.2,5.9-4.3,11.7-6.2,17.5c-1.9,5.8-3.7,11.6-5.3,17.5l-7.4,0.1c0.5-5.9,0.8-11.8,1-17.6
		s0.3-11.7,0.3-17.5l6.2-0.1c-0.6,4.9-1.1,9.8-1.5,14.6s-0.8,9.6-1.1,14.5c1.5-4.9,2.9-9.8,4.3-14.6c1.4-4.9,2.6-9.7,3.8-14.7
		L329.7,226.7z M337.5,261.2c-0.7,0-1.3-0.1-2-0.1s-1.3,0-2,0c-1.1,0-2.2,0-3.3,0.1c-1.1,0-2.2,0.1-3.3,0.2l1-5.3
		c0.4,0.1,0.7,0.1,1.1,0.1s0.7,0.1,1.1,0.1c0.5-2.5,1.1-5.1,1.6-7.6s1-5,1.5-7.6c0.3-1.7,0.6-3.4,0.8-5c0.2-1.6,0.5-3.3,0.7-5
		c-0.4,0-0.9,0-1.3,0s-0.9,0-1.4,0.1l1-5.1c1.2,0.1,2.5,0.1,3.8,0.2c1.3,0,2.5,0.1,3.8,0.1c0.5,0,0.9,0,1.4,0s0.9,0,1.4,0l-1,4.9
		c-0.4,0-0.7,0-1.1,0s-0.7,0-1.1,0c-0.8,3-1.4,5.9-2,8.8c-0.6,2.9-1.2,5.8-1.7,8.8c-0.5,2.6-0.9,5.1-1.2,7.7c0.5,0,1.1,0,1.6,0
		s1.1,0,1.7-0.1L337.5,261.2z M356.2,260.9c-0.7,0.3-1.4,0.5-2,0.7c-0.7,0.2-1.2,0.3-1.7,0.4c-0.6,0.1-1.2,0.1-1.7,0.1
		c-0.6,0-1.2-0.1-1.9-0.3c-0.6-0.2-1.3-0.6-1.9-1.1s-1.1-1.2-1.6-2.1s-0.9-2-1.1-3.4c-0.3-1.4-0.4-3-0.3-4.9c0-1.9,0.3-4.1,0.7-6.6
		c0.4-2.5,1-4.7,1.7-6.6c0.7-1.9,1.4-3.5,2.2-4.8c0.8-1.3,1.6-2.4,2.5-3.3c0.9-0.9,1.7-1.5,2.5-2s1.6-0.8,2.3-1
		c0.7-0.2,1.4-0.3,1.9-0.3s0.9,0.1,1.4,0.1c0.4,0.1,0.8,0.2,1.2,0.4c0.4,0.2,0.7,0.4,1,0.7l-1.4,4.9c-0.4-0.2-0.8-0.4-1.2-0.5
		c-0.4-0.1-0.8-0.2-1.1-0.2c-0.7,0-1.3,0.2-1.9,0.6c-0.6,0.4-1.1,0.9-1.6,1.5s-0.9,1.3-1.4,2.1c-0.4,0.8-0.8,1.6-1.1,2.4
		c-0.7,1.9-1.4,4-1.8,6.4s-0.5,4.5-0.4,6.4c0,0.8,0.1,1.6,0.3,2.3c0.1,0.8,0.3,1.4,0.6,2c0.3,0.6,0.7,1.1,1.1,1.4
		c0.5,0.4,1.1,0.5,1.8,0.5c0.8,0,1.7-0.3,2.8-0.8L356.2,260.9z M372.7,248.4c-0.5,0-1-0.1-1.5-0.1s-1,0-1.6,0c-0.3,0-0.6,0-0.9,0
		s-0.6,0-1,0l-1.6,8.8c1.4,0,2.7-0.1,4-0.2s2.7-0.3,4.1-0.5l-0.9,5.1c-0.9,0-1.8-0.1-2.7-0.1c-0.9,0-1.7,0-2.6,0
		c-1.3,0-2.5,0-3.8,0.1c-1.3,0-2.6,0.1-3.9,0.2c0.7-3.1,1.3-6.1,2-9.1c0.6-3,1.2-6,1.7-9.1c0.5-2.9,1-5.8,1.4-8.7s0.8-5.8,1.2-8.7
		c1.9,0.1,3.7,0.2,5.5,0.2c1.1,0,2.2,0,3.3-0.1c1.1-0.1,2.3-0.1,3.6-0.2l-1,5.7c-1-0.2-2-0.3-2.9-0.4c-1-0.1-2-0.1-2.9-0.1h-1
		c-0.5,2.1-1,4.1-1.4,6.1s-0.8,4.1-1.2,6.1c0.4,0,0.8,0,1.3,0c0.4,0,0.9,0,1.3,0s0.8,0,1.2,0c0.4,0,0.8,0,1.2,0L372.7,248.4z"/>
</g>
</svg>
