<?xml version="1.0" encoding="utf-8"?>
<!-- Generator: Adobe Illustrator 18.1.0, SVG Export Plug-In . SVG Version: 6.00 Build 0)  -->
<svg version="1.1" id="Layer_1" xmlns="http://www.w3.org/2000/svg" xmlns:xlink="http://www.w3.org/1999/xlink" x="0px" y="0px"
	 viewBox="0 0 476 598" enable-background="new 0 0 476 598" xml:space="preserve">
<g>
	<path fill-rule="evenodd" clip-rule="evenodd" fill="#FFFFFF" d="M36,446.4c17.7-5.4,35.2-11.4,52.5-18.1
		c21.5-8.3,44.9-20,52.6-42.5c5.7-16.7,0.9-35.5-7.1-51.2s-19.2-29.5-27.5-45c-15-28.2-19.8-60.8-22.7-92.8
		c-2.5-28-3.7-56.9,3.9-83.9c11.1-39.7,41.9-72.9,79.8-86.1s81.7-5.9,113.8,18.8c48.4,37.4,64.2,110.5,43.5,169.2
		c12.9-1.6,24.6,10.7,26.6,24.1c2,13.3-3.5,26.7-10.8,37.9c-7.3,11.2-16.5,21-23.4,32.4c-20.7,34.5-16.3,83.1,10.4,113
		c3.2-18.3,25.9-26.7,43-21s29.5,20.7,40.9,35c11-13.2,27.5-21.4,44.3-22c5-0.2,10.9,0.8,13.2,5.4c3.3,6.5-3,13.5-7.7,19.1
		c-19.3,22.6-17,56.2-19.8,86.2c-1,10.9-3.7,23.1-12.6,28.9c-8.4,5.5-19.3,3.4-29.2,4.5c-13.7,1.6-25.8,9.5-38.4,15.2
		s-27.9,9.1-39.7,1.8c-5-3.1-9-7.9-14.5-9.7c-13.2-4.5-24.7,9.3-36.6,16.7c-22.9,14.4-52.5,5.3-76.4-7.2s-48.2-28.4-74.9-26.8
		c-13.3-10.9-12-32.3-21.1-47.1c-4.2-6.7-10.3-11.8-16.4-16.7c-16.8-13.7-33.5-27.3-50.3-41"/>
</g>
<g>
	<path fill-rule="evenodd" clip-rule="evenodd" d="M181.2,131.3c-10.5,1.5-26-3.7-40.3-2.2c-8,0.8-14.4,4.2-20.5,5.9
		c-3.4,2.8-7.8,8.2-11.7,8.1C119,122.2,157.4,122.8,181.2,131.3z"/>
	<path fill-rule="evenodd" clip-rule="evenodd" d="M295.5,140.8c-5.7,0.8-9.7-4.6-15.4-6.6c-15.2-5.2-34.9-3-52.8,0
		C244.5,125.9,286.4,123.9,295.5,140.8z"/>
	<path fill-rule="evenodd" clip-rule="evenodd" d="M178.3,140c-8.7,1.9-18.1-3-27.8-2.2c-17.5,1.4-28.9,11.3-38.8,19.8
		C118.4,134.5,154.1,129.5,178.3,140z"/>
	<path fill-rule="evenodd" clip-rule="evenodd" d="M311.6,134.2c-0.1,0.9,0.2,1.3,0.7,1.5c-1.3,3.3-5.6,2-7.3,0
		C305.8,132.7,309.3,136.2,311.6,134.2z"/>
	<path fill-rule="evenodd" clip-rule="evenodd" d="M192.9,154.7c-24.8,1-58.1-12.7-72.5,7.3c-2.1,2.9-1.7,8.7-6.6,10.3
		c2.4-10.8,9.8-16.6,16.9-22.7C151,144.1,172.7,149.4,192.9,154.7z"/>
	<path fill-rule="evenodd" clip-rule="evenodd" d="M184.9,179.6c-16.4-0.1-34.6-5.7-50.6-2.9c-6.3,4.5-11.3,10.2-13.2,19
		c-10-4.6,2.4-15.1,1.5-24.2c1.6-1.1,3.1-2.2,5.9-2.2c-1.6-2.8,0.9-3.9,1.5-6.6c11.9-3.5,23.9-2.9,36.6,1.5c1.8,0.1,3.6,0.1,3.7-1.5
		c5.6,4.4,13.9,6.1,15.4,14.7C184.7,177.5,185,178.8,184.9,179.6z"/>
	<path fill-rule="evenodd" clip-rule="evenodd" d="M236.2,190.6c-4.7,9.9-12.3,23.2-4.4,33.7c-1.2,3-4,4.3-5.9,6.6
		c3.9,12.4,12.1,20.6,15.4,33.7c0.2,1.7,2.3,1.6,2.9,2.9c4.9,15.9-13,14-16.9,23.4c-13.4,7.1-26.5-3.9-27.8-13.2
		c4.3,1.3,7.6,3.6,13.9,2.9c2-7.2,8.3-13.3,8.8-20.5c0.4-6.1-5.3-11-5.9-17.6c-0.4-4.4,2.1-9,2.2-13.2c0.1-7.3-2.9-13.8-0.7-21.2
		c5.7-5.7,9.3-13.7,13.9-20.5C234.8,187.1,234.7,189.7,236.2,190.6z M222.2,245.6c2.8,0.6,2.8-3.5,0-2.9
		C221,244.1,222.3,243.6,222.2,245.6z M225.2,269.7c4,0.6,7.9,1.4,11,2.9c1.3-2.1,3.6-3.2,2.9-7.3c-4.2-2.1-4.6-8.1-9.5-9.5
		C227.9,260.2,225.9,264.4,225.2,269.7z M223.7,279.3c1.5-1.5,5.6-0.2,5.1-3.7C227.1,273.8,221.1,276.8,223.7,279.3z"/>
	<path fill-rule="evenodd" clip-rule="evenodd" d="M276.5,195.7c-7.1,0.5-13.4-4.1-20.5-2.9c-7.7,1.2-12,7.4-17.6,11.7
		c-1.4-2.2,3.1-6.4,5.9-8.8c3.7-3.3,9.2-4.9,12.5-7.3C265.7,188.4,274.6,188.5,276.5,195.7z"/>
	<path fill-rule="evenodd" clip-rule="evenodd" d="M186.3,191.3c0.5,0,1,0,1.5,0c3.4,1.4,6.1,6.1,8.1,9.5c1.6,2.8,4.5,7.3,5.1,10.3
		c1.7,7.6-4.2,16.5,1.5,23.4c-10.6-2.1-3.3-13-3.7-19.1C198.3,205.6,187.8,200.3,186.3,191.3z"/>
	<path fill-rule="evenodd" clip-rule="evenodd" d="M176.8,204.5c-6.9-2.8-13.5-8.3-22-8.1c-9.4,0.3-15.9,6.7-22.7,10.3
		C136.8,187.6,168.6,188.9,176.8,204.5z"/>
	<path fill-rule="evenodd" clip-rule="evenodd" d="M278.6,212.6c-4.5-1.7-4.7-7.5-9.5-8.8c-2.5,2.4-2.8,7-5.1,9.5
		c3.6,0.6,3.8-2.1,7.3-1.5c-5.5,11.1-20.8,1.2-24.2-5.1c-4.8,0.8-3.6,7.6-11,5.9c5.8-10,24.9-19,37.4-10.3
		C276,204.1,279.6,208.6,278.6,212.6z M260.3,212.6c1.3-2,4.8-4.5,2.9-7.3c-3.2,0-1.8,4.5-5.1,4.4c-3.1-0.6-3.4-3.9-6.6-4.4
		C250.9,211.3,256,211.5,260.3,212.6z"/>
	<path fill-rule="evenodd" clip-rule="evenodd" d="M180.5,212.6c-4.1,5.1-9.6-4.9-14.7-5.9c-2.4,5-2,12.6-10.3,11.7
		c-2.7,0.1,0,2.9-1.5,2.9c-5,0.4-8.8-0.5-9.5-4.4c3.1-0.4,3.2,2.1,6.6,1.5c-0.7-1.6-4-6.7-5.1-10.3c-3.4,5.4-10,7.6-15.4,11
		c-4.5-1.1-9.2-2.1-11-5.9c3.3-1.1,7.2,1.6,11,2.2c2.6-0.2-0.1-2,1.5-2.2c1.6-0.6,2.9-1.5,5.1-1.5c6.2-5.9,13.2-11,24.2-9.5
		C169.6,203.4,174.7,210,180.5,212.6z M160.7,210.4c-0.4,2-2.8,2.1-4.4,2.9c-2.5-0.7-3.2-3.2-5.9-3.7
		C146.5,216.1,164.5,218.2,160.7,210.4z"/>
	<path fill-rule="evenodd" clip-rule="evenodd" d="M173.9,216.2c-0.9,2.5-5.8,1.1-8.1,2.2C165.6,215,171.6,214.9,173.9,216.2z"/>
	<path fill-rule="evenodd" clip-rule="evenodd" d="M275.7,224.3c-1.5,6.1-20,2-25.6,4.4c-3.9-1.2-7.3-2.9-11-4.4
		c-0.1-0.9,0.2-1.3,0.7-1.5C250.2,224.9,265.8,225,275.7,224.3z"/>
	<path fill-rule="evenodd" clip-rule="evenodd" d="M175.3,225.8c-6.4,5.1-23.4,11-32.2,4.4c2.1-2.8,7.5,0.4,11,0.7
		C161.6,230.1,169.3,221.1,175.3,225.8z"/>
	<path fill-rule="evenodd" clip-rule="evenodd" d="M191.5,248.5c1.5,4.1-2.2,8.9-5.9,10.3C184.7,255.2,187.6,249.7,191.5,248.5z"/>
	<path fill-rule="evenodd" clip-rule="evenodd" d="M33.2,267.5c-3.9,2.1-12.6,1.8-11.7-5.1C26,260.8,31.6,263.8,33.2,267.5z"/>
	<path fill-rule="evenodd" clip-rule="evenodd" d="M178.3,266.8c4.4,0.5,3.6,6.2,7.3,7.3c3-3.8,14.8-2.5,12.5,2.9
		c-2.6,0.1-11.9-3.4-11,2.2C181.8,277.5,179.2,273,178.3,266.8z"/>
	<path fill-rule="evenodd" clip-rule="evenodd" d="M169.5,267.5c-6.5,9.4-9.7,22.1-16.9,30.8c-1.3,3.6,2,7.7-2.2,8.8
		c-0.8-5-2.5-9.2-5.1-12.5c1.7-2.4,1.1-2.4,0-5.1c2.1-0.6,1.9,1,3.7,0.7c-0.3-2.6-2-2.7-0.7-5.1c1.2-2.2,6.8-0.1,5.1-5.1
		C162.1,279.2,161.2,268.8,169.5,267.5z"/>
	<path fill-rule="evenodd" clip-rule="evenodd" d="M18.5,281.5c4.7,2.7,12,2.6,13.9,8.1c-6.5,0.3-9.1-3.1-14.7-3.7
		C17.7,284,17.7,282.3,18.5,281.5z"/>
	<path fill-rule="evenodd" clip-rule="evenodd" d="M117.5,281.5c11.8,15.3,16.2,38,21.2,60.1c-4.3-4.8-7.5-14.5-6.6-22
		c-5.5-12.6-7.5-24.6-15.4-35.2C117.3,283.7,117.5,282.7,117.5,281.5z"/>
	<path fill-rule="evenodd" clip-rule="evenodd" d="M39.8,307.8c-7.8,5.6-19.6-2.5-29.3-2.2c-0.6-2.5,0.8-3.1,1.5-4.4
		C21.2,303.4,30.6,305.5,39.8,307.8z"/>
	<path fill-rule="evenodd" clip-rule="evenodd" d="M264.7,303.4c0.3,3-0.7,4.7-1.5,6.6c-2.1,1.1-5.6,0.7-8.1,1.5
		c-14,16.5-25.4,36.2-50.6,32.2c-12.4-1.9-25-9.8-30.8-18.3c-2.4-3.6-2.4-8.9-6.6-12.5c-2.5-2.2-9.6-2.1-8.8-7.3
		c21,3.7,57.7-3.5,81.3,0c5.8,0.9,10.5,3.5,14.7,2.9C258.5,308,261.1,303.6,264.7,303.4z M176.1,311.5c1.3,4.1,6.3,4.5,8.8,7.3
		c2.7,0.7,3.9-1.3,5.1,0c13.4,7.1,40.3,3.8,52.8-1.5c0.8-2.6,3.8-3.7,2.2-6.6C224.1,309.6,195.9,307.5,176.1,311.5z M197.3,334.2
		c-4.1-0.5-8-4.5-11-1.5c10.1,8.8,40.6,12.9,45.4-1.5C222.1,333.6,208.6,335.7,197.3,334.2z"/>
	<path fill-rule="evenodd" clip-rule="evenodd" d="M249.3,330.5c-4.6,12.2-13.8,19.9-21.2,29.3c-6.7,0.1-11.6,4.9-18.3,3.7
		c-1.4-0.3-7.2-2.4-10.3-3.7c-3.3-1.4-9.3-4.3-9.5-8.1c23.6,11.1,49.6-1.5,57.1-21.2C247.9,330.5,248.6,330.5,249.3,330.5z"/>
	<path fill-rule="evenodd" clip-rule="evenodd" d="M457.4,408.9c0.2,4.1-1.9,5.9-4.4,7.3c0.6,7.5-5.5,18.3,0.7,24.9
		c0.7,2.9-3.9,0.5-4.4,2.2c-8,13.5-8,31.5-11,48.4c-1.3,7.3-5,13.9-5.1,21.2c-0.1,5.2,2.4,10.1-0.7,14.7c-9.3-2.2-3.1-19.9-9.5-24.9
		c-0.1-3-0.1-6,1.5-7.3c-9.3-8.6,1.5-22.4,0.7-33c-0.6-7.8-10-21.5-13.9-28.6c-5.4-9.7-9.8-18.8-13.2-28.6c2.6-0.6,2.8-3.5,4.4-5.1
		c6.3,5.9,8,16.4,13.2,23.4c3.7-8,6.3-17.1,11-24.2c6.4-7.2,40.9-20.7,41-2.9C467.7,402.2,461.4,405.4,457.4,408.9z M421.5,424.3
		c5,6.9,10.7,15.5,12.5,24.9c0.7,3.8-2,8.5,2.9,10.3c2.3-6.1,2.2-12.4,5.1-18.3c1.5-3,4.4-3.9,5.1-7.3c0.4-1.8-0.8-4.4-0.7-6.6
		c0.4-7.2,4.9-13.9,3.7-22.7c5.6-1.7,8.7-5.9,11-11C441.2,389,421.8,402.2,421.5,424.3z M429.6,464.6c1.1-0.6,1.1-2.4,1.5-3.7
		c-1,0-1.6-0.3-2.2-0.7C428.3,460.8,426.9,465.3,429.6,464.6z M431.8,489.5c4.6-3.2,2.9-13.7,1.5-19.1c-0.7,0-1.5,0-2.2,0
		C432.9,476.2,430.6,484.8,431.8,489.5z"/>
	<path fill-rule="evenodd" clip-rule="evenodd" d="M392.2,400.9c0.4,3.4-2.5,3-4.4,2.2C388.4,401.5,389.6,400.5,392.2,400.9z"/>
	<path fill-rule="evenodd" clip-rule="evenodd" d="M434.7,427.3c3.3,0.4,5.2,2.1,5.9,5.1C437.2,432.1,434.8,430.8,434.7,427.3z"/>
	<path fill-rule="evenodd" clip-rule="evenodd" d="M382,450c0.7,0,1.5,0,2.2,0c7.1,13.4,20.5,20.5,27.1,34.4
		c-1.6,6.6,0.2,7.9,0.7,11.7c-5.9,0.5-4.2-6.5-10.3-5.9c-0.4-4.9-2-7.9,0-11.7C397.3,466.8,387.3,460.8,382,450z"/>
	<path fill-rule="evenodd" clip-rule="evenodd" d="M390,477.1c4.7,0.4,6,7.5,5.9,10.3C391.6,486.2,391.7,480.8,390,477.1z"/>
	<path fill-rule="evenodd" clip-rule="evenodd" d="M360.7,482.2c6.3,4.4,10.4,11.1,17.6,14.7c0,6.4,5.4,11,3.7,16.9
		c-6.7-1.3-6.9-8.4-9.5-13.2C369,494.4,361.8,489.9,360.7,482.2z"/>
	<path fill-rule="evenodd" clip-rule="evenodd" d="M355.6,503.5c4.4,0.4,7,5.9,5.9,9.5C358,511.3,357.1,507.1,355.6,503.5z"/>
	<path fill-rule="evenodd" clip-rule="evenodd" d="M343.1,520.3c0.7,0,1.5,0,2.2,0c1,4.3,6.8,12.9,0.7,15.4
		C341,534.9,342.2,524.9,343.1,520.3z"/>
	<path fill-rule="evenodd" clip-rule="evenodd" d="M379,524.7c1.7-0.2,0.8,2.1,2.2,2.2c-1.6,10.6-4.7,18.2-5.1,27.8
		c-11.1-3.7,2.3-19.9,1.5-27.8C377.2,525.3,379,525.9,379,524.7z"/>
	<path fill-rule="evenodd" clip-rule="evenodd" d="M212,436.8c0.6,3.6-7.1,5.1-7.3,10.3c5.5,0.9,7.2-10.2,13.2-9.5
		c6.8,0.8,9.2,20.6,5.9,29.3c5.2,4.5,22.3-3.5,24.2,3.7c-7.6,1.9-17.7,0.1-24.9-0.7c-3.5,1.9-4.1,10.1,0,11.7c2.1-0.6-0.4-2.4,0-3.7
		c9.1,5.2,12.6,16.1,18.3,24.2c4.1,5.8,10.2,10.5,11,18.3c-4.3-2.9-6.4-8.2-9.5-12.5c-3-4.1-5.8-8.4-9.5-11.7
		c7.8,11.2,3.6,32.1,12.5,43.2c-0.8,3-3.2,0.2-5.9,0.7c0.3,8.9-1.8,10.2-2.2,17.6c-8.9,2.1-8.7-6.3-11-11.7
		c-3-7.2-10.5-13.5-12.5-18.3c-12.3-3.3-16.8-14.4-23.4-23.4c-5.7,5.2,4.1,17.6,8.8,22c5.3,4.9,12.7,7.9,17.6,14.7
		c4.8,6.8,8.3,13.6,11.7,19.8c-8.4-5.1-9.3-14-15.4-21.2c-7.6-9.1-20.2-12.5-24.9-24.9c-2.3,0.2-1.2,3.6-1.5,5.9
		c6.5,4.6,11,12.7,17.6,19.1c5.7,5.5,11.7,6.7,11,13.9c-5.7-0.9-5.2-8-11-8.8c-1.6,2.8,5.1,3.6,3.7,8.8
		c-11.3-2.9-13.3-15.1-22.7-19.8c-3.9,2.7-1.2,12-7.3,12.5c2.8-15.6,5.9-30.5,8.1-44.7c-8.4,6.2-21.4,14.2-27.1,25.6
		c-4.7-1.4,0.1-4.9-0.7-8.8c13.3-14.8,34-22.2,41.8-42.5c3.2,0.5-0.5,3.4,2.2,4.4c5.1-0.9,1.5-5.7,0-8.1c-7.6-1.7-18.8,4.7-19-4.4
		c5.9,0.7,10.1,3.1,16.9,2.9C195.9,456,199.2,442.6,212,436.8z M202.4,456.6c5.4-4.4,11.5-8.1,15.4-13.9
		C211.9,443.2,203.1,450.8,202.4,456.6z M217.1,452.2c-3.9,6.4-12.1,8.4-13.2,17.6c5.1-1.5,6-7.1,9.5-10.3c3.4-1,6.1-2.7,6.6-6.6
		C219,452.7,218.6,451.9,217.1,452.2z M206.1,474.9c4.1-1.6,11.7-5.8,11.7-13.9C212.1,463.7,207.3,467.5,206.1,474.9z M204.6,481.5
		c-0.3,2.3,0.6,3.3,2.9,2.9C209.3,481.8,207.7,480.2,204.6,481.5z M211.2,481.5c1.9,7.8,9.3,10.2,15.4,13.9
		C223.4,489.3,218.4,481.3,211.2,481.5z M203.9,492.5c-0.6-2.1,1-1.9,0.7-3.7c-1.4-1-2.1-2.8-4.4-2.9
		C198.5,488.5,199.4,493.7,203.9,492.5z M192.2,498.3c5.7,5.8,11.4,11.6,16.9,17.6c11,0.9,13.2,10.8,21.2,14.7
		c2.5-9.5-13.4-25-23.4-23.4C204.7,502.6,194.6,486.4,192.2,498.3z M211.2,504.9c11.8-1.5,12.1,12.2,19.8,12.5
		c0.1-6.6-7.1-11.9-10.3-17.6c-5.3,0.9-7.2-1.6-11.7-1.5C208.5,501.8,210.1,503.2,211.2,504.9z M215.6,524.7
		c-0.3-3.6-3.5-4.3-6.6-5.1C209.8,522.8,212.3,524.1,215.6,524.7z"/>
	<path fill-rule="evenodd" clip-rule="evenodd" d="M334.3,93.9c-0.4,2.7-3.6,2.7-3.7,5.9c4.7,32.8-1.1,56.2-6.6,84.3
		c2.7,2.6,10.3,0.5,13.2,2.9c0.2,1.7,0.8,3.2,2.2,3.7c-1,11.2,0.5,20,0.7,30c0.4,14.4-6.1,22.1-8.1,36.6
		c-1.7,12.6-8.3,20.9-16.9,28.6c-3.1,0-4.7-1.4-7.3,0c-3.1,16.3-1,35.4-8.1,50.6c-2.3,4.8-6.2,6.7-6.6,11.7c-0.3,3.4,3,8.5,1.5,12.5
		c0.7,1.5,2.8,1.6,5.1,1.5c8.5,12.5,21.1,20.9,30,33c3.8,0.6,5.3,3.5,9.5,3.7c2-3,0.6-4.9,1.5-8.8c10.1-20.2,57.9-3.5,60.1,10.3
		c-9-3.9-26.5-14.4-40.3-16.1c-14.2-1.8-19.8,8.9-16.1,23.4c7.9,5.6,23.2,3.7,27.1,13.2c2.4-0.3,1.2-4.2,1.5-6.6
		c3.5,2.9,1.9,7.6,2.9,11c2.2,7.3,15.8,24,24.2,30.8c4.5,3.6,14.6,4.2,16.1,11.7c-22.1-7.5-33.8-25.3-45.4-43.2
		c-9.1-5-18.1-10.2-27.1-15.4c-12.8,2.5-19.2,15.2-13.9,28.6c1.7,4.3,7.8,5.5,11.7,8.8c5.3,4.4,10.7,12,16.9,17.6
		c6.8,6.2,15.7,10.4,16.1,16.9c-10.4-5.4-22.1-14.6-30-24.2c-1.8-2.2-2.3-5.5-4.4-7.3c-7.4-6.7-27.1-13.4-32.2,0
		c-1.5,26.9,24.5,30.2,30,47.6c-12.4,0.3-19.7-30.6-34.4-27.8c-4.7,0.9-5.2,6.8-9.5,9.5c1.9,4.8,0,10.5,1.5,15.4
		c2.3,7.5,11.1,12.3,13.2,19c1.8,1.9,5.7,1.6,6.6,4.4c0.6,4.5-3.1,4.7-4.4,7.3c1.3,2.6,2.7,5.1,4.4,7.3c-3.2,6.9,1.2,14.3,0.7,19.8
		c-5.1,1.5-8.7-3.7-10.3-8.1c-9.1,0.2-12.2,6.3-21.3,6.6c-3,5.8-14.1,3.4-14.7,11.7c-7.8,1.6-11.7,3-16.1,7.3
		c-4.4-0.5-4.2-5.5-5.9-8.8c11.1-38.2,25.9-77.1,37.4-117.2c6-20.8,13-44.7,10.3-68.1c-4.5,0.6-5,5.3-7.3,8.1
		c-3.1,3.8-7.9,6-11.7,9.5c-13.4,12.5-25.2,25.8-43.2,34.4c-6,2.9-12.3,4.6-18.3,8.1c-4.2-4.4-10.1-7-13.9-11.7
		c-28-12.5-48-33.1-66.7-55c1.8,25.8-0.5,53.4,1.5,78.4c0.7,9.2,4.4,17.9,1.5,26.4c1.1,1.1,1.5,2.9,2.2,4.4
		c-1,18.2,7.8,42.2,9.5,60.1c-9.8,2.4-12.3-8.7-18.3-12.5c-4.6,1.1,1,6.3-2.2,8.1c-4.4-1.1-7.4,2.4-11,2.2c-7-0.4-8.8-6.9-15.4-8.8
		c-0.2-2.6,3.4-1.4,2.9-4.4c-3-5.3-5.4-11.2-8.8-16.1c3.4-8.8-5.6-13.9-4.4-20.5c-1.8-1.5-3.8,1.6-7.3,0.7c-4.4-4.9-9.5-9-13.9-13.9
		c0.1-3.1,4.1-2.2,5.9-3.7c-4.7-1.8-10.2,2-13.2,4.4c-2.8-0.9-4.6-2.7-7.3-3.7c2.5-4-1.1-6.7,1.5-11.7c-3.5-2.6-5.3,1.8-8.8,1.5
		c1.1-4.2,0.1-4.6-2.2-6.6c-0.9-3.3,2.6-2.3,2.9-4.4c-2.8-1.8-3.4-4.3-2.2-7.3c0-2.9,5.4-0.5,5.1-3.7c-6-5.7-12.7,4.8-18.3,6.6
		c-2.4-4.9-8.7-6-16.9-5.1c-2.6-4.1-2-9.1,0-13.2c11.7-2.7,23.4-5.5,33-10.3c17.1-4.2,40.3-8.5,49.1-23.4
		c11.6-8.6,20.8-19.7,32.2-28.6c-12.9-19.8-18.3-42.8-23.4-69.6c-2.5-0.9-5.6-1.3-8.1-2.2c-3.4-4.4-7.9-7.7-8.1-15.4
		c-5.2-12.2-15.5-20.1-16.1-38.1c-0.4-9.8,2.2-19.6,0.7-29.3c-0.9-6-5.8-11.3-2.9-19.8c3.5-1.9,5.9-0.5,8.1-1.5
		c-2.6-14-7.2-31.7-10.3-49.1C68.6,123.2,59.5,106.5,75,99c1.7-8,8.4-11.4,11-19.1c3.1-9.3,0.9-17.5,6.6-24.9
		c5.4-7.1,15.1-13.6,21.2-19.8c2.9-2.9,4.9-8.2,8.1-10.3c1.6-1.1,4.6-0.6,5.9-2.2c2.8,0.1,4.6,0.1,5.1,0.7
		c14.3-5.5,29.1-16.9,48.4-14.7c12.4,1.5,26.9-0.8,39.6-1.5c1.7,1.5,3.4,2.9,5.1,4.4c29.2,5.3,60.6,8.2,74.7,28.6
		c0.7,25.9,27.6,25.6,29.3,50.6C330.3,93,332.8,93,334.3,93.9z M170.9,22.8c4.3,1.6,13.9,1.6,16.9-2.2
		C184.3,15.9,173.2,17.9,170.9,22.8z M223.7,42.6c-5.8-7.1-15.9-15.3-27.8-11.7c-0.1,2.1,0.6,5-1.5,5.1c-2.7-0.2-3-2.9-6.6-2.2
		c0.3,2.8-0.3,4.6-2.2,5.1c-2.3,0.1-2.4-1.9-5.1-1.5c-1.5,0.7-1.2,3.2-3.7,2.9c-6.8-1-12,4.1-19.8,4.4c1.8,4.5,2.6,10.1,10.3,8.8
		c1.1-10.5,12.8-7.2,20.5-6.6c2.7-4.3,9.4-8.1,13.9-8.1c11.9,0.1,12.6,20,24.9,17.6C227.9,52.7,220.7,48.1,223.7,42.6z M118.2,47.7
		c5.2,2.1,9.5-2.6,12.5-5.1C126.6,37.3,119.4,43.4,118.2,47.7z M269.9,52.9c1.2,1.3,2.2,2.7,2.2,5.1c6.6-0.8,9.2,6.4,14.7,4.4
		C286.3,53.6,277.1,46.1,269.9,52.9z M149.7,58.7c-2.5,1.3-5.2,0.4-7.3-0.7c-1.3,0.9,0,4.4-2.2,4.4c-2.6-0.1-4.2-1.1-6.6-1.5
		c-1.7,4.4-5.5,6.7-11,7.3c1.9,5,9.8-0.2,15.4,1.5c4-4.8,13-4.6,18.3-8.1c0.1-3.4,2.4-4.4,2.2-8.1c-2.4-1.8-6.7-1.6-10.3-2.2
		C146.4,54.6,150.4,54.7,149.7,58.7z M252.3,55.1c4,2.6,5.3,7.9,11,8.8C262.5,58.8,257.4,48.6,252.3,55.1z M268.4,58.7
		c0-2.6-1.8-3.5-2.2-5.9c-1.2,0-2.4,0-3.7,0C262.8,56.5,265.3,57.9,268.4,58.7z M181.2,74.1c-2.6-0.4-4.4-4.4-6.6-2.9
		c-0.4,2.8,1.3,3.6,0.7,6.6c-1.7,0.5-3.7,0.7-5.1,1.5c-1.4,1,1.5,3.9-1.5,4.4c-6.9,1.7-11.9-7.9-17.6-7.3c1.1,3.5,5.8,6.7,3.7,11
		c-7.7,0.9-9.7-7.9-17.6-8.1c-3.6-0.1-7.3,3.4-11,3.7c-9,0.7-14-3.5-19.8-10.3c-3.4,0.7-3.5-1.8-6.6-1.5c-1.2,2.7-0.7,7.1-1.5,10.3
		c19.8-1.2,34.2,8.6,38.1,25.6c-11.9,0.1-11.1-18.6-26.4-17.6c-0.4,5.5,2.9,7.3,5.1,10.3c-4.4,2.7-2.3,11.9-8.8,12.5
		c-0.5,2.2,0.8,2.7,0.7,4.4c-0.8,0.6-2,1-3.7,0.7c4,6.5-3.4,8.9-7.3,11.7c-4.5-4.3-12.3-5.3-17.6-8.8c-1.1,2.6,1.3,5.3,1.5,8.8
		c9.3-4.1,14.8,6.7,19.8,11.7c-2.4,5.3-2.5,10.6-1.5,17.6c-2.3-0.4-2.6,1.3-5.1,0.7c3.6,4,6,9.7,5.1,14.7c-0.6,2.6-5,1.4-5.1,4.4
		c0.5,3.9,5.6,3.2,5.9,7.3c0.8,3.2-2.5,2.4-2.2,5.1c-1.6,10.7,5.1,19.9,6.6,27.1c-12-2.6-12.2-23.5-26.4-26.4
		c-2.4,16.3,22.3,20.8,25.6,37.4c1.3,6.3-0.3,13,0,19.1c0.8,17.3,8.6,35.5,11.7,50.6c2.6,12.2,3.9,25.6,8.1,38.1
		c8.9,27,35.3,51.9,55.7,65.2c13.8,9,34.8,7.4,52.8,7.3c12.5-4.4,17.8-15.1,26.4-25.6c5.7-7.1,10.9-14.8,15.4-21.2
		c1.6-21.7,5.9-41.9,5.9-61.5c-4.6-0.2-5.9,2.9-10.3,2.9c0.4-2.3-1-2.9-1.5-4.4c-8.3-2.2-11.4-9.6-15.4-16.1
		c6.9-1.7,9.4,7.1,14.7,9.5c4.1-5.7,11.9-7.6,17.6-11.7c9.3-19.3,18.6-39.4,19.8-61.5c-5.8-5.6-12.3,2.7-18.3,0.7
		c3.4-4.9,12.1-4.5,15.4-9.5c-5.4-0.4-12.3,7-14.7,0.7c1.2-2.7,6.5-1.3,8.1-3.7c-1.6-6.4-0.8-16.5-0.7-21.2
		c-7.8,0.3-9.5-5.7-13.2-9.5c-11.9-1.6-24.4,2.3-37.4,3.7c-2.2-1.2-3.1-3.7-4.4-5.9c2.3-2,2-6.8,5.1-8.1c1.7,0.7,1.2,3.7,3.7,3.7
		c7.5-9.5,36.8-12.9,44,0.7c-1.1,3.5-0.5,7.2,2.2,8.8c10.9-20.5-18.4-30.8-38.1-28.6c-5.8,0.6-10.4,5.7-13.9,0.7
		c18.8-7.2,39.7-1.3,54.2,7.3c2.5-9.2-10.1-14.4-19-16.1c-14.6-2.7-33.8,4.6-46.9,0.7c21.8-4,51-7.7,66.7,4.4
		c2.3-3.8-1.8-9.6,2.2-11.7c3-0.3,2.3,3.1,4.4,3.7c2.6-3,7,0.2,11-1.5c-0.2-9-11.2-6.5-15.4-12.5c-1.5-2.1-2.5-5.1-2.2-8.8
		c-2.1,0.2-3.7-0.2-4.4-1.5c1.1-2.1,4.9-1.4,5.1-4.4c-6.2-1.2-8.9,3.7-13.2,2.2c0.2-1.4-0.8-1.6-0.7-2.9c4.4-3.1,9-7.7,16.9-5.1
		c4.3-6.8,12.2,1.7,19.1,1.5c3.5-2.6,8.7-14.9,2.9-17.6c-1.9,11.9-16.3,10.2-26.4,8.8c2.7-2.2,5-4.8,6.6-8.1
		c-0.5-3.2-3.8-3.5-4.4-6.6c-2.9,1-6.4,1.5-8.1,3.7c1.3,0.4,4.3-0.9,4.4,0.7c-3.4,1.6-7.4,9.7-11.7,3.7c1.5-1.4,3.8-2.1,5.9-2.9
		c0.5-2.3-2.5-0.9-1.5-3.7c3.1-0.6,5.3-2,8.1-2.9c-1.5-1.8,1.5-7.1,0-7.3c-5,2.1-7.5,6.6-12.5,8.8c-1.5-0.7-0.6-3.8-2.9-3.7
		c-2.2,12.7-15.6,14.2-18.3,26.4c-1.7,0-2.2-1.3-4.4-0.7c-1.3,0.4,0.1,3.5-1.5,3.7c-5.6,1.1-7.5,0.1-11-2.2c-1,0.9,0,3.9-2.9,2.9
		c-2.8-5.8-8.6-15.5-16.9-11c1.5,1.5,3.9,4.9,2.2,7.3c-3.1,0.2-2.4-3.5-5.1-3.7c-1.8,0.4,0.3,4.7-2.2,4.4c-3.2,0.8-2.4-2.5-5.1-2.2
		c-2.9,0.6-3.9,2.9-6.6,3.7c-3.6-0.8-2.4-6.4-5.9-7.3c0.5,1.7,1.5,4.4,0,5.9c-14.6-0.2-25.5,3.8-35.9-5.9c-7.5,0-11.2-0.9-15.4,2.2
		c-1.6-1.1-3.3-2.1-5.1-2.9c-1.8,0.7,2,3.8-1.5,3.7c-3.5-2.3-8.7-6.3-8.1-10.3c4.5,0.1,4.2,5.1,8.8,5.1c-0.8-4.6-3.2-5.6,0.7-8.8
		c6.6,1.7,9.8,6.8,16.9,8.1c0.6-3.5-4-4.3-2.2-6.6c10.6,1.7,24.9-1.2,34.4-2.9c1.2,2.2,1.2,5.6,4.4,5.9c0.8-3.5-2.3-3.1-1.5-6.6
		c7.4-4.2,8.1,3.8,16.1,2.9c2.1,2.7,4.3,8.7,7.3,8.1c-4.3-8.6-13.3-12.5-13.2-25.6c-5.5-1.6-9.7-8-15.4-5.1
		c-4.1-4.2-10.6-6-11.7-13.2c-0.7,0-1.5,0-2.2,0C175.2,61.8,186.3,67.8,181.2,74.1z M242.7,63.8c-2.3,0.4-2.6-1.3-5.1-0.7
		c-0.3,3.4-1.6,5.7-4.4,6.6c-4.4-2.4-10.9-2.8-12.5-8.1c-2.8,0.2-3.1,2.8-5.9,2.9c-2.9-2.6-11.2-3.2-13.2-4.4
		c4,8.7,15.2,10.2,12.5,25.6c5.3,7,13.9,6.6,22,10.3c-2.8-6.5-10.7-7.9-13.2-14.7c5.7,0.4,6.9,5.3,12.5,5.9c0.8-1.9-2.2-3.5,0-4.4
		c3.1-0.6,3.7,3.4,5.9,1.5c2-1.8-3.2-3.6-0.7-5.9c2.9-0.5,2.9,1.9,5.9,1.5c2.1-1.8,5.2-2.6,4.4-7.3c1.7-0.5,3.7-0.7,5.1-1.5
		c-1.9-6-4-11.6-9.5-13.9C245.3,59.6,245.4,63.1,242.7,63.8z M113.1,72.6c1.5,1.3,5.9,1.1,5.1-2.2C115.7,70.4,114.3,71.5,113.1,72.6
		z M94,90.2c-0.8,3.9-5.5,6.7-7.3,8.8c-3.3,3.7-3.1,8.2-5.1,12.5c-0.8,1.6-3.2,1.7-2.9,3.7c0.5,3.4,6.6,6.5,11,5.9
		c0-2.2-2.2-6.5,0.7-7.3c2.7-0.5,3.1,1.3,5.9,0.7c0.9-4.1-3.8-2.6-3.7-5.9c1.2-4.2,6.1-4.6,8.8-7.3c-2.1-3.3-4.2-6.6-5.1-11
		C95.5,90.2,94.7,90.2,94,90.2z M306.5,116.6c-0.9,1-3.2,0.7-5.1,0.7c1.2,2.7,6.3,1.5,5.1,6.6c-1.7,0.5-5.7-1.3-5.1,1.5
		c2.8,2.1,6.5,3.2,11.7,2.9c2.3-2.5,2.3-7.4,2.2-12.5c-3.4-2.5-5.1-6.6-11-6.6C303.4,113.3,306.4,113.5,306.5,116.6z M82.3,137.9
		c0.9-1.1,2.9-1,2.9-2.9c-1.6-1.1-1.7-3.7-4.4-3.7C80.1,132.4,80.7,136.8,82.3,137.9z M90.3,158.4c-0.7-4.2-4.2-5.6-5.1-9.5
		c2.7-2.8,0.6-7.3-2.9-8.1C83.8,147.8,82.3,157.9,90.3,158.4z M305.8,145.2c1.6-1.7-0.2-4.1-2.9-3.7
		C303.2,143.3,303.5,145.3,305.8,145.2z M305.8,159.1c1.6,1.6,4,0.3,4.4-1.5C308.6,156.1,306.2,157.4,305.8,159.1z M305.8,177.4
		c1.9-0.1,2.8-1.1,2.9-2.9C306.7,172.2,303.5,175.4,305.8,177.4z M318.2,208.9c6.2-2.8,6.4-11.7,12.5-14.7c2.2,8-2.9,19,5.9,24.2
		c-2.5-8.4-0.7-19.7-0.7-27.1C324,181.7,317.3,199.4,318.2,208.9z M304.3,205.3c1.9-2.8,2.4-6.9,2.2-11.7c-0.7,0-1.5,0-2.2,0
		C303.9,196.3,302,204.6,304.3,205.3z M81.6,241.9c-0.5-10.5,4.7-19.2,2.2-29.3c-1.4,0.2-1.6-0.8-2.9-0.7
		C80.1,219,77.4,235,81.6,241.9z M321.1,222.8c6.3,7.9,9.4,16.1,4.4,24.2c-1.2,1.9-4.3,2.4-5.9,4.4c-1.3,1.7-1.4,5.3-2.9,7.3
		c-1.8,2.3-4.4,3-5.1,4.4c-1.7,3.4-1,10.6-0.7,14.7c1.4,1,4.7,2.4,6.6,0.7c-2.2-6.4-3-13.9,1.5-18.3c3.7,1,2.1,7.2,6.6,7.3
		c2.6-2.1,1.4-7.9,2.9-11c-0.5-1.2-3.6,0.2-2.9-2.2c6.7-10.6,8.3-31.6-0.7-41C323.3,216.2,322,219.3,321.1,222.8z M85.2,247
		c2.6,7.1,15.2,10.8,10.3,19.1c-2.8-5.3-6.8-9.3-11-13.2c4,10.7,11.6,17.7,12.5,31.5c3.2,1.7,4.1,5.7,9.5,5.1
		c1.2-11.8-5.8-21.5-5.9-34.4c-6.6-5.8-18.7-21.4-5.9-29.3c2.9-0.9,1.8,2.1,3.7,2.2c-2-5-5.4-8.8-11-10.3
		C86.1,228.8,81.7,237.5,85.2,247z M314.5,242.6c3.9,1,5.9-5.7,5.1-11.7c-0.9,0-1-0.9-2.2-0.7C316.2,234,314.4,237.3,314.5,242.6z
		 M94,243.4c1.5,1.5,2.4,3.5,4.4,4.4c1.8-3.1,3.2-11.4,0-13.2C96.4,237,94.7,239.6,94,243.4z M280.1,343c8.3-7.1,5.2-23.1,8.8-33.7
		c-2.5-2.9-0.6-10.2-5.1-11C282.7,312.9,280.9,330.6,280.1,343z M277.2,372.3c5.4-4.2,13.6-8.5,12.5-16.9
		C283.3,358.9,280.6,366,277.2,372.3z M242,409.7c3.6-0.1,5-2.3,5.9-5.1C244.9,405.2,242.8,406.8,242,409.7z M82.3,476.4
		c3.4,0.7,7.1-2.1,5.9-3.7C86.7,474.4,82.8,473.7,82.3,476.4z"/>
</g>
</svg>
