<?xml version="1.0" encoding="utf-8"?>
<!-- Generator: Adobe Illustrator 19.2.0, SVG Export Plug-In . SVG Version: 6.00 Build 0)  -->
<svg version="1.1" id="Layer_1" xmlns="http://www.w3.org/2000/svg" xmlns:xlink="http://www.w3.org/1999/xlink" x="0px" y="0px"
	 viewBox="0 0 146.7 148.2" style="enable-background:new 0 0 146.7 148.2;" xml:space="preserve">
<style type="text/css">
	.st0{fill:#C01E23;}
	.st1{fill:#FFFFFF;}
</style>
<circle class="st0" cx="73.4" cy="74.7" r="68.6"/>
<path class="st1" d="M105,82.9l-19-7.1l-12.4,24.8L61.1,75.7l-19,7.1c-3.5,1.3-5.8,4.7-5.8,8.4v15.5h74.5V91.2
	C110.8,87.5,108.5,84.2,105,82.9z M59.9,62.8c2.9,7,5.7,12.9,13.6,12.9c8,0,10.8-6,13.6-12.9c3.1-1.7,5-4.1,5-6.7
	c0-1.7-0.8-3.2-2.2-4.6c0.1-0.7,0.1-1.4,0.1-2.1c0-10.1-6.8-17.2-16.6-17.2c-9.7,0-16.6,7.1-16.6,17.2c0,0.7,0,1.4,0.1,2.1
	c-1.4,1.4-2.2,2.9-2.2,4.6C54.9,58.7,56.8,61,59.9,62.8z"/>
</svg>
