<?xml version="1.0" encoding="utf-8"?>
<!-- Generator: Adobe Illustrator 19.2.0, SVG Export Plug-In . SVG Version: 6.00 Build 0)  -->
<svg version="1.1" id="Layer_1" xmlns="http://www.w3.org/2000/svg" xmlns:xlink="http://www.w3.org/1999/xlink" x="0px" y="0px"
	 viewBox="0 0 146.7 148.2" style="enable-background:new 0 0 146.7 148.2;" xml:space="preserve">
<style type="text/css">
	.st0{fill:#C01E23;}
	.st1{fill:#FFFFFF;}
</style>
<circle class="st0" cx="73.5" cy="74.7" r="68.6"/>
<g>
	<path class="st1" d="M99.5,37v25.2c0,12.5,0,25,0,25v25.2c0,1.1-1,2.1-1.9,2.3c-6,1.6-14.6,2.6-24.1,2.6s-18.1-1-24.1-2.6
		c-0.9-0.2-1.9-1.2-1.9-2.3V87.2c0,0,0-12.5,0-25V37c0-1.1,1-2.1,1.9-2.3c6-1.6,14.6-2.6,24.1-2.6s18.1,1,24.1,2.6
		C98.5,34.9,99.5,35.8,99.5,37z M95.8,41.6c0-0.9-0.7-1.6-1.6-1.6H52.9c-0.9,0-1.6,0.7-1.6,1.6v64.7c0,0.9,0.7,1.6,1.6,1.6h41.3
		c0.9,0,1.6-0.7,1.6-1.6C95.8,106.3,95.8,41.6,95.8,41.6z M73.5,109c-1.7,0-3,1.3-3,3s1.3,3,3,3s3-1.3,3-3
		C76.5,110.4,75.2,109,73.5,109z M82,36.5c0-0.5-0.4-0.8-0.8-0.8H65.9c-0.5,0-0.8,0.4-0.8,0.8l0,0c0,0.5,0.4,0.8,0.8,0.8h15.3
		C81.6,37.4,82,37,82,36.5L82,36.5z"/>
</g>
</svg>
