<?xml version="1.0" encoding="utf-8"?>
<!-- Generator: Adobe Illustrator 19.2.0, SVG Export Plug-In . SVG Version: 6.00 Build 0)  -->
<svg version="1.1" id="Layer_1" xmlns="http://www.w3.org/2000/svg" xmlns:xlink="http://www.w3.org/1999/xlink" x="0px" y="0px"
	 viewBox="0 0 146.7 148.2" style="enable-background:new 0 0 146.7 148.2;" xml:space="preserve">
<style type="text/css">
	.st0{fill:#C01E23;}
	.st1{fill:#FFFFFF;}
</style>
<circle class="st0" cx="73.4" cy="74.7" r="68.6"/>
<g>
	<path class="st1" d="M101.2,76.1c0-2.6-2.1-4.7-4.7-4.7s-4.7,2.1-4.7,4.7V72l0,0c0-2.6-2.1-4.7-4.7-4.7s-4.7,2.1-4.7,4.7v-3.9l0,0
		c0-2.6-2.1-4.7-4.7-4.7S73,65.5,73,68.1V51.7l0,0c0-2.6-2.1-4.7-4.7-4.7s-4.7,2.1-4.7,4.7v35.5c-2.1-2.7-4.5-6.1-7.6-9.3
		c-3.4-3.5-7.6-4.4-10.6-2c-1.3,1.1-1.2,3.6-0.1,4.8c2,2.5,7.8,13.2,8.9,15.9c0.8,1.9,5.5,11.3,9.4,12.5c1.4,0.4,1.5,2.1,1.5,2.1
		c0,2.4,1.9,4.3,4.3,4.3h26.2c2.4,0,3.2-1.4,4.3-4.3C100.8,108.3,101.2,76.1,101.2,76.1L101.2,76.1z"/>
	<path class="st1" d="M69,38.7h-1.7c-1.2,0-2-1-1.9-2.1l-0.5-7.8c0-1.8,1.4-3.2,3.2-3.2c1.8,0,3.2,1.4,3.2,3.2l-0.5,7.8
		C71,37.7,70.2,38.7,69,38.7z M58.1,42.5l-1.2,1.2c-0.8,0.8-2.1,0.8-2.8-0.2l-5.9-5.2c-1.3-1.3-1.3-3.3,0-4.6s3.3-1.3,4.6,0l5.2,5.9
		C58.8,40.4,58.9,41.7,58.1,42.5z M53.1,52.9v1.7c0,1.2-1,2-2.1,1.9L43.2,57c-1.8,0-3.2-1.4-3.2-3.2s1.4-3.2,3.2-3.2l7.8,0.5
		C52.1,50.9,53.1,51.7,53.1,52.9z M85.4,51l7.8-0.5c1.8,0,3.2,1.4,3.2,3.2s-1.4,3.2-3.2,3.2l-7.8-0.5c-1.2,0.2-2.1-0.7-2.1-1.9v-1.7
		C83.2,51.7,84.2,50.9,85.4,51z M78.4,39.7l5.2-5.9c1.3-1.3,3.3-1.3,4.6,0c1.3,1.3,1.3,3.3,0,4.6l-5.9,5.2c-0.7,0.9-2,1-2.8,0.2
		l-1.2-1.2C77.3,41.7,77.4,40.4,78.4,39.7z"/>
</g>
</svg>
