<?xml version="1.0" encoding="utf-8"?>
<!-- Generator: Adobe Illustrator 19.2.0, SVG Export Plug-In . SVG Version: 6.00 Build 0)  -->
<svg version="1.1" id="Layer_1" xmlns="http://www.w3.org/2000/svg" xmlns:xlink="http://www.w3.org/1999/xlink" x="0px" y="0px"
	 viewBox="0 0 146.7 148.2" style="enable-background:new 0 0 146.7 148.2;" xml:space="preserve">
<style type="text/css">
	.st0{fill:#C01E23;}
	.st1{fill:#FFFFFF;}
</style>
<circle class="st0" cx="73.5" cy="74.7" r="68.6"/>
<g>
	<g>
		<path class="st1" d="M102.8,56.2c0-15.8-13.7-28-29.3-28.1c-16.2,0-29.2,13.1-29.3,29.2c0,0.1,0,0.1,0,0.1
			c0,7.7,3.9,13.8,5.8,17.4c4.4,7.9,5,9.4,5.9,12.7c0.7,2.3,0.6,5.2,0.6,8.2c0,1.8,1.5,3.2,3.3,3.2H87c1.8,0,3.3-1.4,3.3-3.2
			c0.1-3,0-5.8,0.7-8.3c0.8-3.2,2.3-6.7,5.9-12.6C101.3,67.8,102.8,61.5,102.8,56.2z M96.2,56.2c-0.1,4.4-1,8.9-4.9,15.2
			c-3.8,6.1-5.7,10.4-6.7,14.4c-0.6,2.3-0.7,4.5-0.8,6.5H63.2c0-2-0.2-4.2-0.8-6.6c-1-3.9-2.2-6.4-6.5-14.1c-2.1-3.7-5-8.8-5-14.2
			c0-12.6,10.1-22.7,22.7-22.7c6.1,0,11.8,2.4,15.9,6.3C93.6,45,96.2,50.3,96.2,56.2z"/>
		<path class="st1" d="M60.3,108.2h26.3c1.8,0,3.3-1.5,3.3-3.3s-1.5-3.3-3.3-3.3H60.3c-1.8,0-3.3,1.5-3.3,3.3S58.5,108.2,60.3,108.2
			z"/>
		<path class="st1" d="M60.3,117.3h4.6l0.9,2.3c0.2,0.4,0.6,0.7,1.1,0.7H80c0.4,0,0.9-0.3,1.1-0.7l0.9-2.3h4.6
			c1.8,0,3.3-1.5,3.3-3.3s-1.5-3.3-3.3-3.3H60.3c-1.8,0-3.3,1.5-3.3,3.3S58.5,117.3,60.3,117.3z"/>
	</g>
</g>
</svg>
