<?xml version="1.0" encoding="utf-8"?>
<!-- Generator: Adobe Illustrator 19.2.0, SVG Export Plug-In . SVG Version: 6.00 Build 0)  -->
<svg version="1.1" id="Layer_1" xmlns="http://www.w3.org/2000/svg" xmlns:xlink="http://www.w3.org/1999/xlink" x="0px" y="0px"
	 viewBox="0 0 146.7 148.2" style="enable-background:new 0 0 146.7 148.2;" xml:space="preserve">
<style type="text/css">
	.st0{fill:#C01E23;}
	.st1{fill:#FFFFFF;}
</style>
<circle class="st0" cx="73.5" cy="74.7" r="68.6"/>
<g>
	<g>
		<path class="st1" d="M93.2,45.3c-6-2.8-12.7-4.4-19.8-4.4c-24.9,0-45.1,19.5-45.1,43.4v9.3c0,1.3,1,2.3,2.3,2.3h2.3
			c1.3,0,2.3-1,2.3-2.3v-9.3c0-20.2,17.1-36.5,38.2-36.5c5.9,0,11.4,1.3,16.4,3.5L93.2,45.3z"/>
		<path class="st1" d="M98.6,48.3l-3.5,6c9.9,6.6,16.4,17.6,16.4,30v9.3c0,1.3,1,2.3,2.3,2.3h2.3c1.3,0,2.3-1,2.3-2.3v-9.3
			C118.5,69.4,110.6,56.1,98.6,48.3z"/>
	</g>
	<path class="st1" d="M106.9,88.1l-3.4-1.4c-1.1-0.5-1.1-1.2,0-1.7l3.4-1.4h0.1c-0.1-4.5-1.2-8.8-3.1-12.7c-0.1,0-0.3,0.1-0.4,0.1
		l-3.7,0.5C98.6,71.7,98.2,71,99,70l2.3-2.9c0.1-0.1,0.2-0.2,0.3-0.3c-2.5-3.6-5.6-6.7-9.4-9.1l-0.1,0.1l-2.9,2.3
		c-1,0.8-1.6,0.4-1.5-0.8l0.5-3.7v-0.1c-3.9-1.8-8.1-2.9-12.7-3.2l-1.3,3.4c-0.5,1.2-1.2,1.2-1.7,0l-1.3-3.4
		c-4.5,0.3-8.8,1.4-12.7,3.2c0,0,0,0,0,0.1l0.5,3.7c0.2,1.2-0.5,1.6-1.5,0.8L54.7,58c-0.1,0-0.1-0.1-0.1-0.1
		c-3.7,2.4-6.9,5.5-9.4,9.1c0.1,0.1,0.2,0.2,0.3,0.3l2.3,2.9c0.8,1,0.4,1.6-0.8,1.5L43.2,71c-0.1,0-0.3-0.1-0.4-0.1
		c-1.9,3.9-3,8.2-3.1,12.7c0,0,0,0,0.1,0l3.4,1.4c1.2,0.5,1.2,1.2,0,1.7l-3.4,1.4h-0.1v4.2c0,2,1.7,3.6,3.7,3.6h20.2
		c-1.1-2.1-1.4-4.7-0.8-7.2c0.9-3.6,3.5-6.3,6.8-7.5L81,59.1L80.8,84c2.4,2.5,3.5,6.1,2.6,9.7c-0.2,0.8-0.5,1.5-0.8,2.2h20.7
		c2.1,0,3.7-1.6,3.7-3.6L106.9,88.1L106.9,88.1z"/>
	<circle class="st1" cx="73.4" cy="91.1" r="4.8"/>
</g>
</svg>
