<?xml version="1.0" encoding="utf-8"?>
<!-- Generator: Adobe Illustrator 19.2.0, SVG Export Plug-In . SVG Version: 6.00 Build 0)  -->
<svg version="1.1" id="Layer_1" xmlns="http://www.w3.org/2000/svg" xmlns:xlink="http://www.w3.org/1999/xlink" x="0px" y="0px"
	 viewBox="0 0 146.7 148.2" style="enable-background:new 0 0 146.7 148.2;" xml:space="preserve">
<style type="text/css">
	.st0{fill:#C01E23;}
	.st1{fill:#FFFFFF;}
</style>
<circle class="st0" cx="73.6" cy="74.7" r="68.6"/>
<g>
	<path class="st1" d="M62.8,71.6v3c0,0.9-0.4,1.7-1.1,2.2l-5.1,3.8l5.1,3.7c0.7,0.5,1.1,1.4,1.1,2.2v3c0,1.5-1.3,2.8-2.8,2.8h-0.1
		c-0.6,0-1.2-0.2-1.7-0.6l-11-8.2c-0.7-0.5-1.1-1.4-1.1-2.2v-1.6c0-0.9,0.4-1.7,1.1-2.2l11.1-8.3c0.8-0.6,2-0.7,2.9-0.3
		C62.2,69.5,62.8,70.5,62.8,71.6z M79.5,68.8h-2.9c-0.3,0-0.5,0.2-0.6,0.4l-9.5,22.1c0,0.1-0.1,0.4-0.1,0.4c0,0.4,0.3,0.7,0.7,0.7
		H70c0.3,0,0.5-0.2,0.6-0.4l9.5-22c0-0.1,0.1-0.2,0.1-0.3v-0.2C80.2,69.1,79.9,68.8,79.5,68.8z M100,77.6l-10.9-8.3
		c-0.5-0.4-1.3-0.6-1.9-0.6c-1.5,0-2.8,1.3-2.8,2.8v3c0,0.9,0.4,1.7,1.1,2.2l5.1,3.8l-5,3.7c-0.7,0.5-1.1,1.4-1.1,2.2v3
		c0,1.1,0.6,2,1.5,2.5c0.4,0.2,0.8,0.3,1.3,0.3c0.6,0,1.2-0.2,1.7-0.5l11.1-8.2c0.7-0.5,1.1-1.4,1.1-2.2v-1.6
		C101.1,79,100.7,78.1,100,77.6z"/>
	<path class="st1" d="M108.3,43.2H38.9c-3.6,0-6.5,2.9-6.5,6.5v8.1v1.4v40.5c0,3.6,2.9,6.5,6.5,6.5h69.5c3.6,0,6.5-2.9,6.5-6.5V59.2
		v-1.4v-8.1C114.9,46.1,111.9,43.2,108.3,43.2z M39.5,49.5c0-1.2,1-2.2,2.2-2.2h3.5c1.2,0,2.2,1,2.2,2.2V53c0,1.2-1,2.2-2.2,2.2
		h-3.5c-1.2,0-2.2-1-2.2-2.2V49.5z M110.5,99.7c0,1.2-1,2.2-2.2,2.2H38.9c-1.2,0-2.2-1-2.2-2.2V59.2h73.8V99.7z"/>
</g>
</svg>
