<?xml version="1.0" encoding="utf-8"?>
<!-- Generator: Adobe Illustrator 18.1.0, SVG Export Plug-In . SVG Version: 6.00 Build 0)  -->
<svg version="1.1" id="Layer_1" xmlns="http://www.w3.org/2000/svg" xmlns:xlink="http://www.w3.org/1999/xlink" x="0px" y="0px"
	 viewBox="0 0 416.1 314.2" enable-background="new 0 0 416.1 314.2" xml:space="preserve">
<g>
	<path d="M-83.4,254.5h-82.4c-3,0-5.4,2.4-5.4,5.4c0,3,2.4,5.4,5.4,5.4h82.4c3,0,5.4-2.4,5.4-5.4C-78,256.9-80.4,254.5-83.4,254.5z"
		/>
	<path d="M-83.4,274h-82.4c-3,0-5.4,2.4-5.4,5.4c0,3,2.4,5.4,5.4,5.4h82.4c3,0,5.4-2.4,5.4-5.4C-78,276.4-80.4,274-83.4,274z"/>
	<path fill="#C01E23" d="M-83.4,293.4h-82.4c-3,0-5.4,2.4-5.4,5.4c0,3,2.4,5.4,5.4,5.4h16c0.1,5.5,4.6,10,10.1,10h30.2
		c5.5,0,10-4.4,10.1-10h16c3,0,5.4-2.4,5.4-5.4C-78,295.9-80.4,293.4-83.4,293.4z"/>
	<path d="M-124.6-14.9C-184.4-14.9-233,33.7-233,93.5c0,27.2,16.9,55.6,22.2,63.6c-0.1-0.2,7.7,12.2,7.7,12.2
		c13.6,21.4,26.5,41.6,29.5,66.3c0.7,5.3,5.1,9.2,10.4,9.2h78.8c5.3,0,9.8-4,10.4-9.2c3.3-26.6,16.7-48.1,30.9-70.9l4.8-7.8
		c5.1-7.9,22-36.3,22-63.4C-16.2,33.7-64.8-14.9-124.6-14.9z"/>
</g>
<g>
	<path d="M235.5,159.7c3.4-1.9,4.9-5.8,4.2-9.4l0,0c-2.8-9.8-6.8-19.5-12.2-28.8c-5.4-9.3-11.7-17.6-18.9-25l0,0
		c-2.7-2.5-6.9-3-10.2-1.1c-1.1,0.6-2,1.4-2.7,2.4l-5.7,6.6c-10.1-8.9-22-15.8-35-20.2l2.8-8.2c0.5-1.1,0.7-2.2,0.7-3.5
		c0-3.9-2.5-7.2-6-8.3l0,0c-9.9-2.5-20.3-3.8-31.1-3.8c-10.7,0-21.1,1.3-31.1,3.8c-3.5,1.2-6,4.4-6,8.3c0,1.2,0.3,2.4,0.7,3.5
		l2.8,8.2c-13,4.4-24.9,11.4-35,20.3l-5.7-6.6c-0.7-0.9-1.6-1.8-2.7-2.4c-3.4-1.9-7.5-1.4-10.2,1.1h0c-7.1,7.4-13.5,15.7-18.9,25
		c-5.4,9.3-9.4,18.9-12.2,28.8l0,0c-0.8,3.6,0.8,7.4,4.2,9.4c1.1,0.6,2.2,1,3.4,1.1l8.5,1.7c-1.3,6.5-2,13.3-2,20.2
		c0,6.9,0.7,13.7,2,20.2l-8.5,1.7c-1.2,0.1-2.3,0.5-3.4,1.1c-3.4,1.9-4.9,5.8-4.2,9.4l0,0c2.8,9.9,6.8,19.5,12.2,28.8
		c5.4,9.3,11.7,17.6,18.9,25l0,0c2.8,2.5,6.9,3,10.2,1.1c1.1-0.6,2-1.4,2.7-2.4l5.7-6.6c10.1,8.9,22,15.8,35,20.2l-2.8,8.2
		c-0.5,1.1-0.7,2.3-0.7,3.5c0,3.9,2.5,7.2,6,8.3l0,0c9.9,2.5,20.3,3.8,31.1,3.8c10.7,0,21.1-1.3,31-3.8l0,0c3.5-1.1,6-4.4,6-8.3
		c0-1.2-0.3-2.4-0.7-3.5l-2.8-8.2c13-4.4,24.9-11.4,35-20.2l5.8,6.6c0.7,1,1.6,1.8,2.7,2.4c3.3,1.9,7.4,1.4,10.2-1.1h0
		c7.1-7.3,13.5-15.7,18.9-25c5.3-9.3,9.4-18.9,12.2-28.8l0,0c0.8-3.6-0.8-7.4-4.2-9.4c-1.1-0.6-2.2-1-3.4-1.1l-8.5-1.7
		c1.3-6.5,2-13.3,2-20.2c0-6.9-0.7-13.7-2-20.2l8.5-1.7C233.2,160.7,234.4,160.3,235.5,159.7z M121.5,240.3
		c-31.8,0-57.6-25.9-57.6-57.6s25.9-57.6,57.6-57.6s57.6,25.9,57.6,57.6S153.2,240.3,121.5,240.3z"/>
	<path d="M352.9,86.9l-7.4-1.5c0.7-3.5,1.1-7.1,1.1-10.8c0-3.7-0.4-7.3-1.1-10.8l7.4-1.5c0.7-0.1,1.3-0.3,1.9-0.6
		c1.9-1.1,2.8-3.2,2.3-5.2l0,0c-1.6-5.5-3.8-10.9-6.8-16.1c-3-5.2-6.5-9.8-10.5-14h0c-1.5-1.4-3.8-1.7-5.7-0.6
		c-0.6,0.4-1.1,0.8-1.5,1.3l-5,5.7c-5.4-4.7-11.7-8.4-18.7-10.8l2.4-7.2c0.3-0.6,0.4-1.3,0.4-1.9c0-2.2-1.4-4-3.4-4.6l0,0
		c-5.5-1.4-11.4-2.2-17.3-2.2c-6,0-11.8,0.7-17.3,2.2v0c-1.9,0.6-3.4,2.5-3.4,4.6c0,0.7,0.1,1.3,0.4,1.9l2.4,7.2
		c-6.9,2.4-13.3,6.1-18.7,10.8l-5-5.7c-0.4-0.5-0.9-1-1.5-1.3c-1.9-1.1-4.2-0.8-5.7,0.6h0c-4,4.1-7.5,8.8-10.5,14
		c-3,5.2-5.2,10.6-6.8,16.1l0,0c-0.4,2,0.4,4.1,2.3,5.2c0.6,0.4,1.3,0.6,1.9,0.6l7.4,1.5c-0.7,3.5-1.1,7.1-1.1,10.8
		c0,3.7,0.4,7.3,1.1,10.8l-7.4,1.5c-0.6,0.1-1.3,0.3-1.9,0.6c-1.9,1.1-2.8,3.2-2.3,5.2l0,0c1.6,5.5,3.8,10.9,6.8,16.1
		c3,5.2,6.5,9.8,10.5,13.9h0c1.5,1.4,3.8,1.7,5.7,0.6c0.6-0.4,1.1-0.8,1.5-1.3l5-5.7c5.4,4.7,11.7,8.4,18.7,10.8l-2.4,7.1
		c-0.3,0.6-0.4,1.3-0.4,2c0,2.2,1.4,4,3.3,4.6v0c5.5,1.4,11.4,2.2,17.3,2.2c6,0,11.8-0.7,17.3-2.2l0,0c2-0.7,3.4-2.5,3.4-4.6
		c0-0.7-0.1-1.4-0.4-2l-2.4-7.2c6.9-2.4,13.2-6.1,18.6-10.8l5,5.7c0.4,0.5,0.9,1,1.5,1.3c1.9,1.1,4.2,0.8,5.7-0.6h0
		c4-4.1,7.5-8.8,10.5-14c3-5.2,5.2-10.6,6.8-16.1l0,0c0.4-2-0.5-4.2-2.3-5.2C354.2,87.2,353.6,87,352.9,86.9z M291.1,108.5
		c-18.6,0-33.8-15.1-33.8-33.8c0-18.7,15.1-33.8,33.8-33.8c18.7,0,33.8,15.1,33.8,33.8C325,93.3,309.8,108.5,291.1,108.5z"/>
	<path d="M121.5,150.1c-18,0-32.6,14.6-32.6,32.6c0,18,14.6,32.6,32.6,32.6c18,0,32.6-14.6,32.6-32.6
		C154.1,164.7,139.4,150.1,121.5,150.1z"/>
	<path d="M291.2,59.4c-8.4,0-15.3,6.8-15.3,15.3c0,8.4,6.9,15.3,15.3,15.3c8.4,0,15.3-6.9,15.3-15.3
		C306.4,66.3,299.6,59.4,291.2,59.4z"/>
	<path d="M406.6,243.3l-8.8-1.8c0.8-4.2,1.3-8.5,1.3-12.9c0-4.4-0.5-8.7-1.3-12.9l8.8-1.7c0.8-0.1,1.6-0.3,2.3-0.8
		c2.2-1.3,3.3-3.9,2.8-6.3l0,0c-1.9-6.6-4.6-13.1-8.2-19.3c-3.6-6.2-7.8-11.8-12.6-16.7h0c-1.9-1.6-4.6-2-6.9-0.7
		c-0.7,0.4-1.3,1-1.8,1.6l-6,6.8c-6.5-5.7-14-10.1-22.3-12.9l2.9-8.6c0.3-0.7,0.5-1.5,0.5-2.3c0-2.6-1.7-4.8-4-5.6l0,0
		c-6.6-1.7-13.6-2.6-20.8-2.6c-7.2,0-14.1,0.9-20.8,2.6v0c-2.3,0.8-4,2.9-4,5.6c0,0.8,0.2,1.6,0.5,2.3l2.9,8.6
		c-8.3,2.8-15.9,7.2-22.4,12.9l-6-6.8c-0.5-0.6-1.1-1.2-1.8-1.6c-2.2-1.3-5-0.9-6.8,0.7h0c-4.8,4.9-9,10.5-12.6,16.7
		c-3.6,6.2-6.3,12.7-8.1,19.3l0,0c-0.5,2.4,0.5,5,2.8,6.3c0.7,0.4,1.5,0.7,2.3,0.8l8.8,1.7c-0.8,4.2-1.3,8.5-1.3,12.9
		c0,4.4,0.5,8.7,1.3,12.9l-8.8,1.8c-0.8,0.1-1.5,0.3-2.3,0.7c-2.2,1.3-3.3,3.9-2.8,6.3l0,0c1.9,6.6,4.6,13.1,8.1,19.3
		c3.6,6.2,7.8,11.8,12.6,16.7h0c1.8,1.6,4.6,2,6.8,0.7c0.7-0.4,1.3-1,1.8-1.6l6-6.8c6.5,5.7,14,10.1,22.4,12.9l-2.9,8.6
		c-0.3,0.7-0.5,1.5-0.5,2.3c0,2.6,1.7,4.8,4,5.6v0c6.6,1.7,13.6,2.6,20.8,2.6c7.2,0,14.1-0.9,20.8-2.6l0,0c2.4-0.8,4-2.9,4-5.6
		c0-0.8-0.2-1.6-0.5-2.3l-2.9-8.6c8.3-2.8,15.9-7.3,22.3-12.9l6,6.8c0.5,0.6,1.1,1.2,1.8,1.6c2.3,1.3,5,0.9,6.8-0.7h0
		c4.8-4.9,9-10.5,12.6-16.7c3.6-6.2,6.3-12.7,8.1-19.3l0,0c0.5-2.4-0.6-5-2.8-6.3C408.2,243.6,407.4,243.4,406.6,243.3z
		 M332.6,269.1c-22.3,0-40.5-18.1-40.5-40.5c0-22.3,18.1-40.5,40.5-40.5c22.4,0,40.5,18.1,40.5,40.5
		C373.1,251,355,269.1,332.6,269.1z"/>
	<path fill="#C01E23" d="M332.6,210.3c-10.1,0-18.3,8.2-18.3,18.3c0,10.1,8.2,18.3,18.3,18.3c10.1,0,18.3-8.2,18.3-18.3
		C350.9,218.5,342.7,210.3,332.6,210.3z"/>
</g>
<g>
	<path fill="#C01E23" d="M208,527.7c-4.6-19.1-14.5-36.1-28-49.4c-13.6,13.3-23.5,30.3-28,49.4C151.9,527.7,179.8,536.4,208,527.7z"
		/>
	<path d="M165.7,636.6c-16.4,11.2-36.2,17.7-57.6,17.7c-56.7-0.1-102.6-46-102.7-102.7c0.1-40.5,23.5-75.4,57.5-92.2
		c9.4,36,34.9,65.5,68.4,80.2C131.3,539.7,122.7,591.9,165.7,636.6z"/>
	<path d="M179.9,625c36.3-35.4,30.8-79.1,30.8-79.1c-33.1,8.8-61.5,0-61.5,0S145,591.8,179.9,625z"/>
	<path d="M165.7,466.6c-14.7,14.9-25.6,33.6-31,54.4c-27.1-13.3-47.4-38.2-54.6-68.2C80.1,452.9,123.7,438,165.7,466.6z"/>
	<path d="M194.2,636.7c16.4,11.1,36.2,17.7,57.5,17.7c56.7-0.1,102.6-46,102.7-102.7c-0.1-40.5-23.5-75.4-57.5-92.2
		c-9.4,36-34.9,65.5-68.5,80.2C228.5,539.7,235.9,594.5,194.2,636.7z"/>
	<path d="M179.9,454.3c0,0,43.1-35,102.4-19.7c3.1-63.2-48-108.3-102.4-108.4c-54.8,0.1-105,45-102.4,108.6
		C77.4,434.7,130.2,418.4,179.9,454.3z"/>
	<path d="M279.8,452.9c-7.2,30-27.5,54.9-54.6,68.2c-5.4-20.9-16.3-39.6-31-54.4C194.1,466.6,232,438.3,279.8,452.9z"/>
</g>
</svg>
