<?xml version="1.0" encoding="utf-8"?>
<!-- Generator: Adobe Illustrator 19.2.0, SVG Export Plug-In . SVG Version: 6.00 Build 0)  -->
<svg version="1.1" id="Layer_1" xmlns="http://www.w3.org/2000/svg" xmlns:xlink="http://www.w3.org/1999/xlink" x="0px" y="0px"
	 viewBox="0 0 501 301" style="enable-background:new 0 0 501 301;" xml:space="preserve">
<style type="text/css">
	.st0{fill:#FFFFFF;}
</style>
<rect x="313.7" y="20.2" class="st0" width="69.2" height="175.4"/>
<g>
	<g>
		<g>
			<path class="st0" d="M212.1,227.9V34h69.2v189.2h106.2c6.9,0,11.5,0,13.8-2.3c4.6,0,6.9-2.3,9.2-4.6c2.3-2.3,4.6-4.6,4.6-9.2
				c0-2.3,2.3-9.2,2.3-16.2V20.2h69.2v175.4c0,13.8-2.3,27.7-4.6,36.9c-2.3,9.2-11.5,25.4-11.5,25.4c-9.2,11.5-18.5,18.5-30,20.8
				c-11.5,2.3-27.7,4.6-48.5,4.6h-180V227.9z"/>
		</g>
		<rect x="19.1" y="20.9" class="st0" width="260.8" height="57.7"/>
		<rect x="103.7" y="107.9" class="st0" width="69.2" height="173.1"/>
	</g>
</g>
</svg>
