<?xml version="1.0" encoding="utf-8"?>
<!-- Generator: Adobe Illustrator 19.2.0, SVG Export Plug-In . SVG Version: 6.00 Build 0)  -->
<svg version="1.1" id="Layer_1" xmlns="http://www.w3.org/2000/svg" xmlns:xlink="http://www.w3.org/1999/xlink" x="0px" y="0px"
	 viewBox="0 0 476 462" style="enable-background:new 0 0 476 462;" xml:space="preserve">
<style type="text/css">
	.st0{fill:#C01E23;}
	.st1{fill:#FFFFFF;}
</style>
<g>
	<path class="st0" d="M195.7,139.2c10.3-13.9,12.5-33.5,5.5-49.4c-4.4-9.9-12.3-19.7-9.7-30.3c2.3-9.7,12.4-14.9,21.3-18.9
		c18.3-8.2,37.2-16.5,57.2-17c13.9-0.3,27.6,3.2,40.9,7.3c18.7,5.8,37.1,12.8,54.9,21.1c9.2,4.3,19.6,10.7,20.2,21
		c0.3,5.6-2.4,10.9-3,16.4c-1.6,14.8,11.5,26.5,17.5,40.2c5.2,11.7,4.9,25.2,8.6,37.5c6.7,22.6-22.1,14.5-7.1,32.4
		c11.1,13.3-14.9,21.6,20.3,68.9c1.1,1.5,16.5,19.4,18.1,20.4c21,12.4,15.3,33.8,6.2,31.8c-7.5-1.6-14.8-3.9-22.4-4.7
		c-7.6-0.7-17,4-16.5,11.8c5.4-1.4,9.5,5.4,9.5,11c0,5.7-1.9,11.6,0.2,16.8c2.7,6.7,11.7,11.6,9.7,18.6c-0.8,2.9-3.4,4.8-5.9,6.3
		c-10.3,6.2-23.3,9.3-29.9,19.5c-2.1,3.2-3.5,7-6.6,9.1c-2.5,1.8-5.7,2.1-8.8,2.2c-14.9,0.7-30-1.6-44-6.8
		c-6.9,5.9,4.7,18.8-0.8,26.2c-1.8,2.3-4.8,3.2-7.6,3.9c-18.4,4.5-37.2,6.8-56.1,6.8c-2.4-7.7-2.4-16.2-0.1-23.9
		c-1,5.8-3,12.1-8.1,14.9s-13.2-1.6-11.7-7.3c-12.2,9.9-23.6-125.6-45,10.6c-0.9,5.8-9,8.2-14.7,9.3c-7.2,1.5-13.9-3.9-19.3-9
		c-7.5-7.1-14.9-14.5-20.9-23c-6.9-9.9-11.7-21.1-19.1-30.6c-11.2-14.4-27.3-23.7-43.1-32.6c-7.3-4.1-18-7.6-22.7-0.5
		c-3.2,4.9-1.2,12.4-5.5,16.3c-5.1,4.7-13-0.7-17.3-6.1c-3.9-4.8-7.5-10.3-8.4-16.4c-0.8-6.2,2-13.3,7.8-15.4
		c6.6-2.4,13.5,2.2,20.3,4.1c18.1,5.1,35.4-9.5,48.8-22.9c15-15,12.1-19.8,7.8-40.8c-1.6-7.8,13.6-31.6,19.5-36.8
		c4.8-4.3,12.6-1.8,18.5-4.4c4.2-1.8,6.9-5.9,10-9.3c6.4-7,15.5-11.3,24.8-11.9c2.8-0.2,5.9-0.1,8.2-1.7c2.3-1.6,3.4-4.5,4.4-7.1
		c3.3-9.3,6.6-18.9,6.9-28.8c0.3-9.9-3-20.5-10.8-26.5"/>
</g>
<g>
	<path class="st1" d="M186.6,135.2c1.1-9.4,2.7-18.8,4.9-28c2.4-10.3,7.6-22.2,18.1-23.5c8.7-1,17.7,6.3,25.8,3
		c4.6-1.9-16.6-46.9-13-50.2c6.7-6.2,44.2,0,53.3,1.4c9,1.4,34.8,5.1,21.8,42.1c-1.5,4.4,8.4,4.4,13.1,4.7c3.1,0.2,6.1-0.5,9.1-0.9
		c21.5-3.4,44.2,2.1,61.7,15c-5,6-18.3,0-20.9,7.3c-1.1,3,0.8,6.2,2.3,8.9c6.2,10.9,8.7,23.9,7.2,36.3c-0.2,1.7-0.5,3.5-1.6,4.9
		c-2.6,3.5-8.1,2.6-12.2,4.3c-7.3,3-7.6,14.7-1.4,19.7s15.6,3.9,22.2-0.5c5.8,7.3-1.3,17.3-5,25.8c-3.8,8.8-3.6,19.2,0.5,27.8
		c2.2,4.7,5.5,8.8,7.7,13.4c2.2,4.7,3.2,10.4,0.7,14.9s-9.4,6.6-13,2.9c1.8,6.8,9.2,10.1,15.4,13.3c6.2,3.2,13,8.8,11.7,15.7
		c-1.6,8.7-15.2,12.9-13.8,21.7c0.6,4.1,4.4,6.8,7,10c7.1,8.6,6,21.9,0,31.4c-5.9,9.5-15.7,15.9-25.4,21.4c-10.1,5.7-21.7,11-33,8.1
		c-3.5-0.9-6.9-2.6-10.5-2.4s-7.5,3.3-6.6,6.8c0.7,2.9,3.9,4.2,6.3,5.8c2.4,1.6,4.4,5.4,2.1,7.3c-21-1-42.1-2-63.1-3.1
		c-1.7-0.1-3.5-0.1-4.8,0.9c-3,2.4-0.6,8-3.4,10.6c-1.5,1.3-3.7,1.2-5.7,0.9c-7.3-0.8-14.6-1.7-22-2.5c-2.6-12.2-5.3-24.3-7.9-36.5
		c-1.3-6.1-2.6-12.5-0.5-18.3c1.7-4.6,5.2-10.2,1.8-13.8c-1.1-1.1-2.7-1.6-4.2-2.1c-10.1-3.1-20.3-6.2-30.4-9.3
		c-5.3,17.4-4.7,36.5,1.7,53.5c1.8,4.9,4.2,9.7,4.1,14.9c-0.3,11.6-13.3,19.6-24.8,18.7c-11.6-0.9-21.6-8-30.6-15.2
		c-27.4-21.8-52-46.8-76.8-71.5c-1.2-1.2-2.4-2.4-4-3.1c-2.7-1.2-5.8-0.4-8.8-0.6c-8.4-0.3-15.5-8.8-14.4-17
		c6.3-9.6,23.6,0.6,32.3-6.9c2.1-1.8,3.3-4.5,5-6.6c7-8.8,20.1-8.3,31.2-9.8c2.2-0.3,4.5-0.7,6-2.3c2.1-2.2,1.8-5.6,1.6-8.6
		c-0.6-10.1,0.9-20.3,4.6-29.7c7.9-20.2,24.7-35.5,42.1-48.5c4-3,8.3-6.1,10.4-10.7c0.6-1.4,1.1-3,2.1-4.2c2.9-3.3,8.3-1.7,12,0.8
		c3.6,2.5,7.6,5.6,11.9,4.6c5.2-1.3,6.9-7.7,7.4-13.1c1.8-22.2-1.2-44.9-8.8-65.9"/>
</g>
<g>
	<path d="M307.1,49.9c-1.3-2.2-4.9-2.2-6.3-4.3c1.8-1.7-0.1-5.4,2-6.8c2.6,0.9,4.2,4.3,3.4,6.8c1.7,0.5,3.3-1.4,4.3-2.6
		c0-1.6-1.7-2.7-2.8-3.7c-2.7-2.4-6.6-4.3-11.4-3.4c-4.2,0.8-10.8,5.9-7.7,10c1.5,2,5.7,3.6,9.7,4.3
		C301.2,50.6,304.5,51.5,307.1,49.9z"/>
	<path d="M270.1,61.5c0.5,2,2.8,1.4,4.3,2c3.1,1.3,6.2,5.2,5.7,8.5c-0.3,2.3-3.4,3.2-1.1,5.7C289.3,73.9,278.3,57.9,270.1,61.5z"/>
	<path d="M257.5,63.8c0.4,2.1,2.7,1.1,4,1.4c3.4,0.9,6.1,3.3,8.3,5.1c0.6,1.9,0.8,4.3,2.6,5.1c2.4-1.2,1.3-4.7,0.3-6.3
		C270.1,65.6,262.6,61.7,257.5,63.8z"/>
	<path d="M302.5,65.5c2.1-0.8,4-1.7,6.6-2c4.5,5.6,1.5,17.7-6.6,17.7c-0.8-0.2-0.7-1.4-1.4-1.7c-3.7,1.4-11.4,1-14.2-1.1
		c1.8-1.3,2.6-5,5.1-4.6c0.8,1.4-1.8,2.7-1.1,4c5,1,4-6.4,7.1-8.3c1.3,3.1-1.5,6.6-3.1,9.1C303.3,81.1,300,69.7,302.5,65.5z
		 M304.2,75.8c-1.2-0.1-1.5,0.6-2,1.1c0.2,1.2,1.5,1.3,2.3,0.6C304.6,76.8,304.6,76.1,304.2,75.8z"/>
	<path d="M321.9,74.3c-0.3,0-0.6,0-0.9,0c-2.4,4.1-7.7,6.1-13.1,6.3C312.9,86.3,322.2,80,321.9,74.3z"/>
	<path d="M343.3,85.5c-4.4,3.7-13.7,5.6-17.4,0.9c1.6-0.9,2.9-0.3,4.3-0.3c7.3,0,8.5-6.1,14-7.4c0.2,3.1-2.6,3.1-2.8,5.7
		c3.8-0.9,3.7-5.6,6.8-7.1C348.2,80,346.1,83.1,343.3,85.5z M341,84.9c-1.1,0.1-2,0.5-2.3,1.4C339.5,85.9,340.9,86.1,341,84.9z"/>
	<path d="M315.6,92.3c1.2,1.2,1.8,0.3,3.7,0.3c8.8,3.8,25.9,13.7,33,2.6c-5.8,3.8-11.4,1.9-19.1-0.9c-4.4-1.6-8.7-4.3-11.7-4.8
		C318.8,88.9,316.2,89.8,315.6,92.3z"/>
	<path d="M309.4,149c-1.5-4.5-7.1-4.9-8.8-9.1c-3.8-3.1-10.7-3.2-14.2-6.6c-2.7-0.2-5.2-0.7-6.8-0.6c-3.1,1.2-7,0-11.4,1.7
		c-0.6,0.2-1.3,1.3-2.3,1.7c-1.6,0.7-4.1,0.7-6,1.7c-2.7,1.4-6.1,4.8-6.3,6.3c-0.2,1.8,1.6,3.7,3.7,3.7c1.4,0,4.5-2.1,6.6-3.1
		c2.5-1.2,4.6-1.7,6.8-2.6c4.4-1.6,9.9-4.6,16.5-3.7c5.9,0.8,9.9,3.2,14,6C303.6,146.1,305.9,148.9,309.4,149z"/>
	<path d="M331.6,134.7c0.6,0.9,1.5,1.5,3.1,1.4C334.6,134.8,332.6,133.6,331.6,134.7z"/>
	<path d="M328.2,139.9c-0.4,2.6,3.3,2.5,5.1,2C332.5,140.4,330.5,139,328.2,139.9z"/>
	<path d="M326.5,143c1,3.7,8.7,4.9,12.5,4.6C336,145,331.3,142.8,326.5,143z"/>
	<path d="M245.6,172.9c2.6-0.9,1.2-3.8,2.3-5.7c2.4-4.3,8.3-5.5,11.7-8.8c-3.9-2.8-7.8,3.3-11.4,4.6c-1.1,2.2-2.7,3.7-4,5.7
		C244.6,170,244.2,172.4,245.6,172.9z"/>
	<path d="M282.3,165.5c-2.4,3.2,2.7,6,4.3,2.8C286.9,165.7,284.4,164,282.3,165.5z"/>
	<path d="M216.2,171.8c1.6,0.3,3.4,0,4.3-1.1C221.2,164,212.7,167.1,216.2,171.8z"/>
	<path d="M265.2,172.6c-0.1,2.2,4.1,1.6,4.8,0.6C269.4,171.8,266.3,171.3,265.2,172.6z"/>
	<path d="M201.1,175.5c0.3,3.1,6.2,2.1,7.4,1.1C207.7,174.9,202.5,173.9,201.1,175.5z"/>
	<path d="M368.3,197.1c5.3-0.3,3.3-7.5,3.1-11.1c-0.2-4.3-2.1-8-4.3-10.3c-0.3,0-0.5,0.1-0.6,0.3c-3.6,2.2-1.1,4.9,0,8.8
		C367.9,189.7,366.9,193.3,368.3,197.1z"/>
	<path d="M266.1,179.2c3.5,3.5,12.3,4.3,15.1,0c-1.6-1.1-4.6-0.2-7.7-0.3C270.5,178.8,267.2,177.2,266.1,179.2z"/>
	<path d="M206,180.3c1.9,3.1,11.7,3.1,13.1-0.9C216.3,179.2,209.6,179.6,206,180.3z"/>
	<path d="M353.2,185.7c3,4.4,12.4,10,5.4,16.8c-4.5-2.6-8.1-0.4-9.7,3.4c-0.4-2.6,2.7-5.6,2.6-8c-5.3-0.1-8.5,10.4-3.4,11.1
		c3.2,0.4,3.2-3.6,5.1-5.1c3.1-0.4,3.4,1.9,5.4,2c4.5,0.1,6.8-6.1,6.3-10.8c-0.4-3.3-3.6-8.1-5.7-9.7
		C357.9,184.5,354.3,182.7,353.2,185.7z"/>
	<path d="M242.4,199.4c0.2,4.1,5.6,4.3,6,7.7c0.3,2.9-2.6,3.8-2.8,7.1c3.3,0.7,4.5-3.1,5.7-5.4C250.1,204,247.1,199.7,242.4,199.4z"
		/>
	<path d="M231.9,209.9c1.9,1.3,3.3-0.7,5.4-0.3c2.1,0.4,3.9,4,5.7,1.1C242.2,206.9,232.4,204.3,231.9,209.9z"/>
	<path d="M351.8,219.3c2.5,2.6,4.8-1.2,6.6-2.9c2.1-1.9,4.2-4.1,6-5.4c0-0.3,0-0.6,0-0.9C358.3,210.3,355.3,215.8,351.8,219.3z"/>
	<path d="M260.9,212.2c0.2,2.5,2.8,5.4,5.1,7.4c2.1,1.8,5.7,3.8,7.7,5.7c2.3,2.1,3.1,5,7.4,3.7c-0.4-5.7-7-7.3-11.1-10.3
		C266.7,216.4,264.8,211.8,260.9,212.2z"/>
	<path d="M209.7,223.1c0.4,2.1-1.2,3.5-0.3,5.1c0.3,0,0.5,0.1,0.6,0.3c2.2-0.5,2-3.3,2.6-5.4C211.9,222.5,210.4,222.8,209.7,223.1z"
		/>
	<path d="M229.6,230.2c6.8-3.6,14.8-1.5,22.2,0.3c3.2,0.8,6.6,0.7,9.4,1.4c5.1,1.3,12.7,2.6,14.2,4c0.7,0.6,0.9,1.5,1.1,2.6
		c-1.6,2.6-3.4,3.9-6,5.7c-3,2-5.2,4.1-9.1,4.8c-3.8,0.8-9.3,1.7-12.2,2c-3.7,0.4-7.2-0.2-8.5,2.6c5.2,2.1,7.7-3.7,13.1-1.4
		c0.9,0.4,0.9,1.8,1.7,2.3c2.5-0.5,4.3-1.8,7.1-2c-2.3,5.6-9.7,6.1-14.5,9.1c-9.6,1.3-19.1,2.6-24.2-2.6c-1.5-1.5-3.2-5.2-4-8
		c-0.7-2.7-2.3-8.3,0.3-9.7c2.5,2.6,1.8,10.9,6.8,9.1c-0.9-1.9-3-2.5-2.6-5.7c-2.4-5.3-10.3-5.1-10-13.1
		C218.5,227.8,224.2,230.1,229.6,230.2z M223.3,235.6c-0.4,2.3-0.1,4.7,1.1,6.6c6.7,3.9,16.2,0.2,23.4,0.3c1.6,0,3.3,0.9,4.8,0.9
		c3.2-0.1,5.3-1.3,7.4-2.8c2.4,3.3,10.3,1.3,12-1.4c-6.7-3.7-17.3-4.1-26.8-5.1C237.3,233,229.7,234.3,223.3,235.6z M229.3,247.3
		c-0.1,1.1,0,2.1,0.3,2.8c6.8,1.1,13.9,0.1,20.8-1.1c1.9-0.3,3.8-0.9,5.1-1.7c-5.8-1.2-11.2,0.4-16.2,0.3
		C235.9,247.4,232.6,246.2,229.3,247.3z"/>
	<path d="M117.9,232.5c-0.1,0.8,0.6,0.9,0.6,1.7c3.4,0.2,6.9,3.1,9.7,2C126.5,233.5,121.3,231.7,117.9,232.5z"/>
	<path d="M107.7,285.2c1.9,6.4,11.5,11.3,16.5,5.7c-1.7-3.2-5.8-0.9-8.8-1.4C112,288.8,111.1,284.3,107.7,285.2z"/>
	<path d="M176.3,64.9c-0.1-2.5,0.4-4.9,0-8c2.1-4.7,5.5-8,8.5-11.7c5.2-3.3,10-7.1,12.8-12.8c2.1-0.4,3.2-1.7,4.3-3.1
		c4.1-0.6,7.1-3.8,11.1-4.3c1.1-0.1,2.5,0.2,3.7,0c2.4-0.4,2.7-1.9,4-2.8c0.8-0.5,2.1-0.5,3.1-1.1c1.7-1.1,3-2.8,4.6-3.4
		c5.1-2,11.6-3.8,17.9-2.8c1,0.1,2.1,1.1,3.7,1.4c3.8,0.7,7.4,0.4,10.5,0.9c1.5,0.2,3,1,4.6,1.1c3.2,0.4,6.6-0.4,10.5,0.3
		c3.1,0.5,7.3,1.2,10.8,2c7,1.5,14.8,4.8,20.5,7.1c4.1,1.6,7.4,3.4,10,6.6c0.7,0.9,1.2,3.2,2.6,4c2.3,1.3,5.1,0.1,8.3,0.6
		c3.6,0.6,7.8,2.9,11.4,4.6c3.7,1.7,7.9,3.5,10.5,5.4c5.1,3.6,7.8,9.9,11.1,14.5c1.2,0.2,1.3,1.5,2.6,1.7c3.9,5.2,8.5,9.8,13.1,14.2
		c6.8,10.1,10.4,22.5,10.8,35.6c0.1,1.7-0.1,4,0,5.7c0.3,6.3,5.1,13.9,7.1,19.4c0.6,1.7,0.6,3.8,1.1,5.7c1.1,3.6,3.8,7.2,3.4,12.2
		c2.2,5.8,3.9,12,4.6,19.4c1,1.9,1.1,4.6,1.4,7.1c3.9,2.8,5.3,8,8.5,11.4c0,6.5,4.1,12.6,2.3,19.4c2.9,2,0.5,5.4,2.6,8.3
		c-0.9,0.9-2.3,1.2-2.6,2.6c10.5,7.2,17.6,24.9,9.7,38.2c0,0.9,0,1.7,0,2.6c-1.8,3.5-3.4,7.2-6.8,9.1c-1,2.8-3.8,3.8-5.4,6
		c5.5,7.7,6.9,18.7,2.6,28.2c-1,2.2-4.8,7.1-6,8.3c-0.5,0.5-1.7,0.7-2.6,1.4c-0.6,0.6-0.9,1.6-1.4,2c-0.8,0.5-1.8,0.4-2.8,0.9
		c-4.9,2.4-7.1,4.6-12.3,2.6c-1.5,0.7-1.2,1.9-1.4,3.4c-1.2,2-3.3,3.1-4.3,5.4c2.3,3.6,3.1,8.7,7.7,10c0.1,2-0.9,2.9-1.1,4.6
		c-1.5-1-3.4,0.2-4,2.3c0.2,0.8,1.5,0.6,1.4,1.7c-1.2,0.4-2.1,1.1-3.4,1.4c-4,7.2-11.7,10.7-19.1,14.5c-4.7,5-10.3,10.4-13.1,16.2
		c-3.8,2-4.6,7-8.8,8.5c-3.9,0.2-9.5,1.2-12.2-1.7c-3.1,0.1-3.9-2.1-7.1-2c-3.7-1.5-6.9-5-10.8-5.4c2.3,6.7,7.4,10.8,8.5,17.9
		c1.2,0.7,2.2,2.1,1.4,4c-4.9,2.3-9.8,4.7-16.2,5.4c-1.9,2-5.2,1.5-8.5,1.4c-2.3,1.7-5.2,1.1-7.7,1.4c-4.7,0.6-9.7,2.9-14.2,2.8
		c-2.2,0-4.6-0.2-6.8,0.3c-4.9,1-10.5,2.2-16.2,2.8c-2.1-3.5-1-11.3-1.7-17.9c-0.5-5-1.8-13.9-2-18.8c-0.1-2.4-0.7-5.2,1.4-6.8
		c1.4,1.3,1.5,4.1,1.7,6.6c0.2,2.7,0.6,5.8,0.9,8.3c0.1,0.7-0.2,2.3,0,2.8c1.2,3,5.1-0.6,6.8-1.7c6-3.9,12.9-7.4,17.1-11.1
		c5.7-2.2,9-6.7,14.2-9.4c0.9-1.3,2.4-2.2,3.1-3.7c1-0.2,1.3-1,2.6-0.9c1.7-2.3,5-4,7.1-5.7c1.8-1.4,3.2-3.6,5.1-5.1
		c0.8-0.6,2-0.8,2.8-1.4c3.4-2.7,6.2-6.5,9.7-9.1c3.1-2.4,5.3-4.7,8-7.4c2-2,3.8-4.2,5.7-6.6c3.9-4.9,9.3-11.4,9.4-17.9
		c-7.5-5.5-4.3-23.8,7.7-21.7c0.9-2.2,1-5.2,2.3-7.1c1.2-0.1,1.8-0.9,2.8-1.1c0.2-2.9,4-2.3,4.3-5.1c-0.5,0-0.2-0.9-0.9-0.9
		c-4.2,1.4-11.3,0.9-9.7,6.6c-5,2.9-13.8,0.6-17.7-2.6c-1.8-5.5-3-12.4-1.4-17.9c1.1-3.7,4.3-9.2,7.7-10c1.3,3.3-3.8,6.1-2.3,10.5
		c2.4-0.3,1.6-3.7,4.6-3.4c1.4,1.5-2,3.5,0.6,4.8c3-0.1,4.6-1.5,6.8-2.3c2.8,2.7-0.2,8.5,2.6,10.8c3.3-0.8,7.2-1,8.5-3.7
		c-0.5-3.1-3.5-3.5-5.7-4.8c-0.1-1.5-0.8-2.4-0.6-4.3c1.8-1.2,3.6-0.9,5.1-2c1.8-1.3,2-4.2,4.6-4.6c0.2,1.8,0.7,3.3,2.6,3.4
		c-0.4,4.3,5.7,7.3,9.1,3.7c-0.4-2.9-0.4-5.5,3.1-5.1c2.4,2.3,3.3,6.1,5.7,8.3c0.1,2.5,1.3,4.4,1.7,6.8c0.3,1.5-0.3,3.9,1.1,5.1
		c2.1-0.2,3-1.7,4.8-2.3c1-2.4,3-3.3,3.7-5.4c2.9-8.9-10.2-19.6-18.8-16.5c-2,0.7-3.4,2.3-5.1,3.7c-1.8,0.1-3.3,0.5-5.1,0.6
		c-3.9-7.1-13.7-3.7-22.2-5.4c0.7-3.3,5.1-1.7,7.7-2s5.4-1.4,8-1.7c-1.3-2.6-5.3-3.3-8-3.7c-1,2.7-4.4,3-6.8,4.3
		c-2.4-2.2-1.4-5.8-1.4-8.5c-0.1-3.7,0.2-7.2,1.1-10.8c-2-1.1-5.8-1.9-5.1-4.8c3.2-0.7,4.2,2.3,7.1,1.4c3.8-1.2,7.9-6.9,12.2-7.7
		c5.4-8.3,12.9-16.7,13.7-29.1c0.2-2.7,0.3-5.5,0.6-8.3c0.1-0.8,0.1-2.2,0-3.1c-0.2-3.1-0.4-7.7-2.8-9.1c-3.8,3-7,5.8-12.3,8
		c-4.7,2-8.7,6.1-13.1,3.1c-0.5-1.6,1.2-2,0.6-2.8c-0.7-0.5-2.4-0.1-3.1-0.6c-1.8-1.2-0.6-3.9-3.1-4.6c-0.1-0.8,0.8-1.7-0.3-2
		c-1.2-0.3-4.7,0.8-4.3-2c2.2-1.2,4.3-2.6,4.6-5.7c-1.2-1.1-2.7-1.8-3.4-3.4c-0.2-1.2,0.6-1.3,0.6-2.3c-2.5-2.1-7.6-1.6-8-5.7
		c6.2,1,12.2,3.8,19.1,3.1c10.6-1,18.9-8.4,22.2-16.5c-2.3,0.2-3,2.1-4.3,3.4c-7.5-1-8.1,6-14.5,5.1c-1,0.1-0.6,1.7-2,1.4
		c-3.9-0.8-5.6-3.7-8.8-5.1c-0.4-3.3-3-4.4-5.7-5.4c-0.1-0.9,0.5-1.2,0.3-2.3c-1.4-1.1-3.9-1.1-4.6-2.8c0.8-1,2.6,0.7,2.8-0.6
		c-1.6-1.4-4.8-1.3-6.3-2.8c0.8-0.4,1.6-0.7,2.8-0.6c-0.6-1.7-2.9-1.9-4-3.1c-0.7-1.7,0.1-3.2,0.9-4.8c-2.5-2.9-8.6-2-9.1-6.8
		c1-1.1,3.1,0.5,3.7-1.1c-0.8-1.6-3.7-1.2-3.7-3.7c1.6-1.2,3.2,0.7,4.6,1.4c5.1,2.7,13.2,2.7,18.5,4.6c0.3,0.8,0.6,1.7,1.4,2
		c3,0.7,6.4-1,9.7,0c1.9-1.4,4-4.1,7.4-3.1c1,4.4-4.6,4.4-5.4,8c0.1,1.5,1.8,1.2,2,2.6c-0.3,2.8-3.8,2.5-4.3,5.1
		c0.5,1.3,2.6,1,4,1.4c0.4,1.9,2.8,1.9,5.1,2c6.8-6.7,11.3-19.4,8-30.8c-0.6-0.9-2.2-0.9-2.6-2c0-1.2,0.5-1.8,0.3-3.1
		c-1.2-1.5-3.4-0.2-4.6-1.7c-0.4-1.9,1.1-3.2,0.3-4.6c-1.1-0.4-2.5,1.8-4.3,0.9c-1.3-0.9-0.3-2.6-0.9-4c-4.2-2.1-5.8,0.6-9.1,2.3
		c-2,1-4.7,2.3-6.3,2.3c-0.5,0-1-0.6-1.7-0.9c-0.8-0.3-2.6,0.3-2.8-1.1c0.9-0.9,2.5-1.1,4-1.4c0-1.1,1.2-0.9,1.7-1.4
		c0.4-1.5,1.8-2.2,2.6-3.7c0.7-1.4,0.6-3.9,2.6-4.3c1.7,1.8-0.8,4.3-0.3,5.7c1.1,0.5,2.6-0.7,3.4-1.4c1.3,0.6,2.4,0.7,3.1-0.6
		c0.4-1.2-0.1-1.6-0.6-2.6c4.8-8,1.2-21.5-7.1-25.6c-0.7,0.5-0.7,1.6-2,1.4c-4.1-3.2-8.8,1.1-12.8-0.9c-0.8,1.6-3.7,1.3-4.6,2.8
		c0.1,3.3,1.8,6.2,1.7,9.7c-0.1,4.1-3.1,6.9-3.7,10c-3.8,3-6,7.7-12.8,7.7c0.1-1.7,1.9-1.7,3.1-2.3c3.5-4,8.5-6.5,9.4-13.1
		c0.2-0.8,1.3-0.6,1.4-1.4c-0.2-0.9-0.9-1.2-1.1-2c1.1-5.2-5.1-16.5-9.1-16.2c-1.5,0.1-1.5,1.9-3.1,1.7c-0.3-2.2,1.6-2.2,1.1-4.6
		c-1.4-0.8-1.8,0.5-3.4,0.3c-1.4-7.3-5.1-14-13.7-14.5c-1.6-0.1-3.7,0.5-5.4,0.3c-0.9-0.1-1.6-0.6-2.3-0.6
		c-4.7,0.3-10.6,6-10.8,10.5c-0.1,3.1,2.1,5.3,1.4,8.5c-2.6-0.6-4.7-4.1-7.7-1.7c-1.2-0.1-1.6-2.4-2.6-1.7c0.3,2.3,1.9,2.8,1.1,5.1
		c-6.6-3.1-6.9-12.8-4-19.9c1-1.3,3.2-1.3,3.4-3.4c-4.1-0.8-10.7-2.3-14.8,0c-1-0.3-2-0.6-3.4-0.6c-0.5,0.4-0.3,1.4-0.9,1.7
		c-6.5,2.4-11.8,8.5-12.8,15.4c1.9-0.6,4.3-0.2,5.7,0.6c0.3,0.8,0,3.3,1.7,3.4c0.3-1.2-1-2.7,0.3-3.1c1.9,1,3.6,2.1,6,2.6
		c2.3,3.5,7.7,3.9,9.4,8c-2.1,0.9-4.5-1.6-6.6-0.9c-0.6,0-0.1,1-0.3,1.4c-3.2-1.2-2.8,2.3-6,1.1c-1.4,3.4-5.6,3.2-9.7,4
		c5.6,6.5,24,1.6,23.6,13.1c-4,0.1-4.5-4.8-8.3-4c1,1.7,3.9,1.4,3.7,4.3c-2.8-0.1-4.6-4.1-7.4-2.3c1.9,2.1,5.8,2.2,6,6
		c-1.9,0.9-3.4-1.5-5.4-1.7c-0.9-0.1-1.6,0.5-2.6,0.6c-1.4,0.1-2.8-1.1-3.7,0c2,1.7,5.4,3.5,5.4,6.3c-4.3-1.1-6.7-5.5-11.4-5.1
		c1.8,1.6,5.4,2.7,4.8,5.7c-3.1-0.9-5.2-3.2-8-4.6c-3.6-1.7-7.8-2.4-11.7-2.6c-1.7-0.1-3.7-0.8-5.4-0.9c-1.7,0-3.1,0.7-4.8,0.6
		c-4-0.4-7.7-3.2-10.8-1.4c5.7,2.9,12.5,3.2,18.8,3.4c2.7,0.1,6.5-0.2,7.7,2.6c-3.6,0.1-10-0.9-13.4,0.6c0.8,2.5,5.1,1.4,4.6,5.1
		c-4.1-1-10.2-4.1-16.2-3.1c-0.8,0.7,0.4,2-0.3,2.6c-0.3,1-1,1.7-1.4,2.6c-0.2,5-5.3,8.9-4.8,14.5c-2.7,5.8-4.4,12.3-4.8,19.1
		c-1.2,0.8-0.6,2.1-0.9,3.7c-0.5,3.6-2.8,6.4-0.9,8.8c2.8-1,5.5-2.7,8.8-2.3c1.2,0.2,2.9,1.3,4.6,2c1.7,0.7,4,0.9,5.1,1.7
		c2.2,1.4,5.4,5.6,5.4,8.8c-2.7,1.3-5-1.3-7.1-2.3c-1.9-0.8-4.3-1.9-6.6-2.8c-1.7-0.7-4.4-1.9-5.7-2c-9.2-0.8-7.5,11.8-4.6,17.9
		c1.2,0.3,2.4,1.4,3.7,0.9c0.1-1.2-0.9-0.9-0.3-2c0.9,0,1.7,0,2.6,0c4.7-6.7,15.7-3.8,21.6,0c-0.6-1.2-1.3-2.7,0-3.7
		c1.8,0.1,2.9,2.2,3.7,3.7c2.7,4.7,3.8,10.5,4,17.4c-2.3,5.9-4,12.4-7.1,17.4c-0.9,0.3-1.7,0.6-2.6,0.9c-2.7,3.5-3.5,7-1.7,10.8
		c0.7,1.5,2.6,4.7,3.4,6c1.6,2.3,4.9,3.2,5.4,5.4c-4.9,0-9.5-1.2-12-4.8c0.4-6.2-1.2-9.8,0-14.8c2.2-2.8,3.9-6,6.3-8.5
		c1-5.7,6.3-10.8,4.6-16.5c-2.1,1-1.5,4.6-4.8,4.3c0.5-2.3,2.6-3.1,2-6.6c-1.9-1.4-3.7-4.2-6.6-3.7c-3.1,0.6-3.3,4.8-1.4,7.4
		c1.4,0.7,3.2,1,3.4,2.8c-6.2,4.4-9.7-8-4.6-11.1c-2.2-2.9-8.2-1.7-10.8,0.3c0.4,1.4-1.4,2.8-1.7,4.6c-0.3,1.6,0.7,3.3-0.6,4.3
		c-2.6-2.7-7-2.1-10.8-3.7c-0.4,0.4-0.3,1.5-0.3,2.3c1.3,0.8,3.4,0.8,4.8,1.4c0.5,1.6,0.4,2.3,1.1,4c-1.3,6.7-3.8,13.1-4.8,19.4
		c-0.3,1.6-0.3,3.4-0.6,5.1c-0.9,5.1-0.3,6.9,0.6,11.1c1.1,5.1,1.8,8.8,3.7,12.8c4,3.6,6.2,9,8.8,14c-0.1,1-1.3,1-1.1,2.3
		c2.2,6.4,6.6,10.6,7.4,18.5c2.3,3.7,2.6,9.5,7.1,11.1c0.7,6.8,0.3,13.2,3.1,17.7c4.9,7.5,19.8,7.9,30.2,7.4c2.3-0.1,3.6-1,4.8-1.1
		c1.3-0.2,3.4,0.3,5.1,0c2.9-0.5,7.1-2.5,11.1-4c3.8-1.4,8.1-2.5,11.4-4c6.1-2.7,13.9-5.7,19.4-8.8c0.8-0.5,1.4-1.5,2.3-2
		c2.4-1.3,5-2.1,7.4-3.1c7.2-3.1,12.2-9.1,17.4-13.1c1.9-3.4,4.2-6.4,6.3-9.7c0.6-1.7,0.7-4.1,3.1-4c0.4,3-2.1,5.5-2.3,8.8
		c-8.3,10.1-16.7,20.1-28.8,26.5c-0.7,1.9-3.4,2-4.3,3.7c-6.3,3.5-13.9,5.6-20.8,8.5c-6.2,0.8-11.3,2.6-17.1,3.7
		c-0.8,0.3,0.4,2.5-0.9,2.3c-1.2,0.7-2-0.9-3.4-1.1c-2.9-0.4-6.9,0.7-8.8,1.4c2.2,5.2,2.3,10.8,3.4,16.2c0.3,1.7,1.4,3.1,1.7,4.8
		c0.9,4.6,1.8,9.1,3.1,13.7c0.9,3.2,2.6,6.3,3.4,9.4c2.1,8.2,2.4,16.6,4,25.4c-1.5,4.6,1,12.4-4,14c-1.5-2.4-0.1-6.6-0.3-10.3
		c-0.2-2.8,0.1-6.2-1.7-7.4c-1.4,4.2-5.6,6.9-9.7,7.4c-0.9-4,0-9.2,0-13.7c-0.1-7.2-0.2-14.7,0.9-20.5c0.5-3,2.9-6.5-0.6-7.7
		c-4.1-1.4-6.2,4.7-8.3,6c-1.4,0.9-3.9,1.1-5.4,1.1c-8.1,0.2-16.9-2.5-24.8-3.1c-1.3,0.9-1.5,1.6-2,2.8c3,5.6,10.3,6.8,11.7,14
		c-0.4,0.1-0.6,0.4-0.6,0.9c-4,1.4-10.9-0.2-12,3.4c-0.7,2.4,1.5,4.8,2.6,6.8c1.3,2.4,2.6,4.5,3.1,7.1c4.2,8.6,8,17.5,11.1,27.1
		c0,0.8,1.2,0.5,1.1,1.4c-0.1,5.8,4.9,8.3,4.8,15.1c-1.1,0.8-1.9,0.2-3.4,0c-3.1-4.2-4.2-9.8-6-15.1c-1.3-3.8-3.1-6.8-4.3-10.3
		c-2.6-7.7-6.3-15.9-10-21.9c-0.1-4.3-3.5-5.4-3.7-9.7c2.7-2.9,6.2-5.2,9.7-7.4c-2.6-2-4.1-5-5.7-8c-1,0.2-1.5,0.8-2.6,0.9
		c-3-1.6-6.2-0.6-9.1-1.4c-3.2-0.9-6-3.4-10-3.1c-1.8-2.5-5.2-2.4-8-3.7c-1.2-0.6-2.4-1.9-3.7-2.6c-2.9-1.5-4.5-2.6-6.6-4.3
		c-5-4.1-10.5-9.6-10.5-17.4c8.3-1.5,16.8-1.2,24.2-3.1c-8.1-0.4-19.5-1.4-26.8-5.1c-0.5-1.6-2.1-1.5-3.4-2.6
		c-1.8-1.4-3.3-4.7-5.4-4.3c-1.6,0.3-1.6,3.2-2.6,4.6c-0.3,0.4-1.2,0.9-1.7,1.4c-1.4,1.6-2.3,2.9-4.6,3.1c-1.1-0.8-0.3-2.6,0-3.7
		c3.3-1.9,5.7-6.1,7.1-8.8c-2.5-3.8-4.4-8.3-10.3-8.8c-2.7,11,0.3,22.9,3.7,31.6c2.7,6.9,6.7,12.7,10.5,17.9c0.7,0.9,1,2.2,1.7,3.1
		c1.9,2.5,4.2,4.9,6,7.1c1.1,1.4,1.5,3,2.6,4.6c2,2.9,5.3,6.2,6.6,8.8c1.5,3.1,4.3,6,6.3,9.1c3.2,5,5.1,10.1,7.4,15.4
		c0.1,4.2,1.8,6.7,0.9,10c0.2,0.9,1,1.2,1.4,2c-0.6,1.2-1.2,2.4-1.7,3.7c1.2,0.9,0.4,2.1,0.9,3.4c-2.1,1.3-2.1,5.9-2.8,7.7
		c-5.2,2.3-9.5,6.9-16,8.3c-4,0.9-8.2-0.6-13.1-0.9c-1.5-1.6-4.1-1.9-6.8-2.3c-4.6-3-8.7-6.5-13.4-9.4c-0.8-1-1.1-2.5-2.9-2.6
		c-0.4-0.7-0.4-1.7-0.9-2.3c-0.8,0-1.2-0.5-2-0.6c-0.6-2.5-2-4.2-4.6-4.8c-1.3-3.1-3.9-4.9-6.8-6.3c0-0.6,0-1.1,0-1.7
		c-2.3-1.2-3.3-3.7-4.8-5.4c-1-1.1-2.6-1.6-3.7-2.8c-1.8-1.9-3.6-3.6-5.1-5.4c-0.7-0.8-1-2.1-1.7-2.8c-0.8-0.8-2.1-1-2.8-1.7
		c-1.9-1.7-4.3-4.4-6.3-6.6c-2.9-3.2-5.4-5.8-7.4-8.8c-3.2-1.4-4.2-4.9-8-5.7c-0.1-0.7-0.4-1.1-0.3-2c-4-3.3-8.3-6.3-11.7-10.3
		c-5.8-2.1-9.4-10.4-15.4-11.4c-2.5-0.4-2.3,1.1-4.3,2.3c-0.4,0.3-1.4,0.1-1.7,0.3c-0.7,0.5-1,1.7-1.7,2.3c-0.9,0.8-2.2,0.9-2.8,1.4
		c-0.2,0.2,0.2,0.9,0,1.1c-1.1,1.2-3.3,1.7-3.7,3.4c-3.4,0.1-4,3-6.6,4c-1.3,0-2.7,0-4,0c-5.2-3.8,2.5-7.3,5.1-9.4
		c1.9,0.1,3.3-0.3,3.4-2c-3.4-4.1-7.8-7.2-9.7-12.8c1.4-5.2,8.5-4.5,13.4-2.8c0.4,1.3-1.2,1-0.9,1.7c1.2,0.9,1.8-0.9,3.1-0.9
		c9.4,4.2,17.4,10,24.8,16.2c0.9,0.4,1.6,0.8,2.6,1.1c2.4,2.8,4.9,5.5,8.5,7.1c0.5,0.2,0,1.4,0.6,1.4c8.1,6.9,15.1,14.9,22.8,22.2
		c2.1-0.2,2.8,1.2,4.6,1.4c0.1,1.1-0.6,1.3-0.9,2c3.7,2.3,4.3,7.7,9.4,8.5c1.5,2.6,4.7,3.5,5.1,7.1c3.6,2.3,7.4,4.4,8.8,8.8
		c1.3,0.5,2.3,1.3,4,1.4c1.1,2.4,3.1,3.9,4.6,6c2.1,1.5,4.6,2.1,6.6,3.7c0.9,0.8,1.2,2.1,2,2.8c2.4,2.2,5.6,4,9.1,4.6
		c3.4,3.1,8.8,4.3,15.1,4.6c3.8-2.7,9.2-3.8,10.8-8.5c0.3-3.2,1.9-4.3,2-6.6c0.1-2.8-0.2-5.4,0-9.1c-0.9-2.2-2.1-4.8-1.4-7.7
		c-2.1-2.2-2.2-6.4-5.1-7.7c-1.2-4.6-2.8-8.7-6.6-10.8c-2.3-6.9-8.1-10.1-10.8-16.5c-0.9-0.5-1.2-1.4-2.3-1.7
		c-1.5-4.2-5-6.4-6.3-10.8c-5.5-4.4-7-12.8-10.3-19.4c-3.6,2.7-7.5,3.2-11.4,4.8c-0.1,0-1,0.5-1.1,0.6c-8.8,6-14.8,14.1-21.1,21.9
		c-0.3,0.5-0.8,0.7-0.6,1.7c-2.4,1.4-4.8,6.2-6.8,8.5c-1.6,1.9-2.3,2.8-4.6,1.1c2.5-8.2,7.5-13.8,11.1-20.8
		c-2.3-2.7-4.2-5.8-4.3-10.8c-4.9-6.8-10-13.5-18.8-16.5c-0.9-0.4-0.9-1.8-2-2c-4.6,3.2-7.4,8.2-13.4,10c-2.5,3-5.8,5.2-9.4,7.1
		c-0.9-0.8-1.7-1.8-2-3.1c4.6-4.2,9.1-8.6,15.1-11.4c2.6-5.4,9.1-6.9,12.2-11.7c17.3-2.2,19.5-20.9,22.8-36.2c-0.4-0.5-0.8-1-0.6-2
		c2.9-3.6,2-8.3,4.8-11.4c-0.5-0.3-0.6-0.9-0.6-1.7c1.8-0.6,0.4-2.8,1.4-4c0.2-0.7,2.1,0.2,2-0.9c-0.8-1.1-0.2-1.7-0.3-3.4
		c0.5-0.7,1.8,0.7,2-0.6c-0.2-0.9-0.6-1.5-0.9-2.3c1.3-1.4,0.1-3.3,0.6-5.1c0.6-2.6,3.8-4.2,5.7-6.6c0.9-1,1-2.4,1.7-2.8
		c2.5-1.7,6.2-0.9,9.7-0.9c1.6-0.4,1.4-2.6,2.6-3.4c1-1.1,1.8,0,2.9,0.3c1.6-1.5,5.3-2.1,7.7-2c5.7-4.2,13.1-13.7,21.1-16
		c3.8-1,6.2,0.8,9.7,1.4c1.1-2.8,6-4.5,6.3-7.4c0.2-2.1-1.6-4.9-1.4-7.7c0.1-1.2,0.9-1.9,0.3-3.4c3.7-4.1,10.4-5.3,12.2-11.4
		c-0.2-1.3-1.5-1.6-1.4-3.1c1.8-0.6,1.4-2.3,2-3.7c1.5-0.5,1.3,2.1,2.3,1.1c-1.3-5.7,0.6-11.3-0.6-16.2c-1.1-1.1-1.1-2.1-1.7-3.7
		c-1.8-4.8-6.9-10.3-8.3-14.2c-0.6-1.6-1.4-4.2-1.4-5.7c0-2.7,2.4-5.2,1.7-8.3c0.4-0.7,1.7-0.6,2-1.4c1-2.2,3.1-5.7,2.3-8
		c3-4.4,5.2-9.6,6.3-16C183.7,78.3,176.7,74.7,176.3,64.9z M211.7,49.3c3.2-4.5,5.7-9.7,10-13.1c0.2,0.2,0.5,0.3,0.9,0.3
		c-0.1,3.2-4,4.1-3.7,6.8c0.3,1.1,1.7,1.1,3.1,1.1c1.1,0.9,2.2,1.8,4,2c0.4,1.5-1.2,2.6-0.3,3.7c1.4,0.7,1.2-2.3,2.3-2.8
		c3-0.7,7.5-0.2,10.5-1.4c0.7-8,7.8-11.2,11.1-15.7c-2,1.3-4.6-0.6-6.8-0.3c-1,0.1-1.6,1.2-2.6,1.4c-3.3,0.9-7.8-1.7-10,1.1
		c-1.4,0.1-2.6,0-3.7-0.3c-1,0.3-1.4,2.2-2.8,1.1c0.3-1.8,2.1-2,3.1-3.1c-0.1-1.4,0.3-3.4-0.6-4c-8.7,2-13.6,9.6-17.1,17.7
		C209.7,46,209.1,49.7,211.7,49.3z M268.6,37.9c1.3,2.3-0.2,6.9,2.3,9.1c0.3-1.4-0.6-4,0.9-6.3c0.7-1.1,2.6-2.5,4-2.8
		c0.6-0.1,1.3,0.2,2,0c3.6-1.3,7.3-4.5,10-6c-4.2-0.2-8.7-2.7-12.2-1.4c-3,1.1-3.9,4.6-5.7,7.1C269.7,38,269.1,37.8,268.6,37.9z
		 M192,60.7c1.3,8,7.8,12,15.4,14.5c-0.2-2-2.9-1.6-3.1-3.7c-5.2-2-7.9-6.6-10.8-10.8c-0.4,0-0.8,0-0.9-0.3
		C192.2,60.3,192.1,60.5,192,60.7z M232.2,61.8c1.8,3.2,6.4,6.4,10.5,5.4c-0.7-1.9-3.5-1.7-4.8-2.8
		C236.6,62.9,234.6,62.1,232.2,61.8z M192.3,86.3c-0.7,3.8-2.6,7.8-2.6,11.4c2.8-1.7,2.2-6.7,4.8-8.5c1.2,0.2,1.6,0.9,2.6,0
		C197.2,86.6,194.4,85.7,192.3,86.3z M375.2,117.9c-0.2,0-0.4,0-0.6,0c-3.4,8.5-7.9,15.9-15.1,20.5c-3.6,0-5.2,0.6-6.8,2.8
		c-0.1,0.9,0.8,0.8,0.9,1.4c2.1,0.2,2.1-1.7,4.6-1.1c1.3-1,2.5-2.3,4.8-2.3c1.3-2.2,3.8-2.7,5.7-4.6c1.1-1.1,1.4-2.6,2.3-4
		c0.8-1.1,2.2-1.8,2.8-3.1C375,124.9,375.1,121.3,375.2,117.9z M388.3,143.3c-0.3,0-0.6,0-0.9,0c-0.5,1.4-0.8,3.2-1.7,4.3
		c1,8.5,0.3,17.8,3.1,23.4c-1,0.4-0.9,2-1.7,2.6c0.3,5-0.2,10.2-1.1,15.4c0.5,3.2-0.2,8.6-1.7,12.2c-2.1,1.6-4.2,3.2-6.3,4.8
		c-0.8-0.2-2.3,0.4-2.6-0.3c-3.1,2.6-5.3,6.1-7.7,9.4c0.2,0.5,0.1,1.2,0.6,1.4c-1.1,3.2-4.9,3.9-5.1,8c1.1,1.3,2.9,1.9,4,3.1
		c0.5,0.8-0.7,1.9-0.3,3.4c0.8,1.8,3.5,1.9,4.3,3.7c-0.6,1.9,0,4.1,1.4,4.8c1-0.2,1-1.5,2.3-1.4c2.2,2.5,4,5.5,8,6.3
		c0,1.2-0.6,1.8,0,2.8c2.6,0.4,4.7,1.4,7.1,2c4.8,1.7,7.2,7.5,10.8,9.4c1.4-0.4,1.2-2.5,2-3.4c3.1-1.1,6.7-1.1,10-1.4
		c0-3.8-0.5-9.5-3.4-11.4c0.2-4.2-3.1-4.9-3.7-8.3c-3.8-1.1-7.2,1.9-10-1.4c-4.4,0.8-9.2,4.6-12.8,0.6c-0.3-3.2,0.9-4.4,1.1-6
		c0.1-1-0.2-2.9,0.6-3.7c3.7-4,16,0.2,14-6.8c-0.7-2.2-3.4-2.5-5.7-3.7c-0.8-3.5,1.5-4,2.3-6c-1.2,0-2.6,0.2-3.1-0.6
		c1.3-8.5,0.3-18.3,1.4-27.9C390.6,167.9,390.8,154.5,388.3,143.3z M202.8,157.8c3.6,1.4,7,0.9,10.5,2.3c4,1.6,8.1,4,11.1,5.4
		c0.7-2-1.3-3.6-1.7-5.4c-3.7-0.3-6.1-1.9-8.8-3.1C210.9,157.5,204.8,154.3,202.8,157.8z M188,160.4c-0.3,1.8,1.2,1.6,2,2.3
		C191.3,162.1,189.4,159.2,188,160.4z M403.7,194.3c-2.1,1.2-4.2,2.5-4.8,5.1c0.5,0.7,1.2,1.2,1.4,2.3c-0.5,2.1-4.4,2.5-4,4.6
		c2.5,2.6,4.8-0.7,7.1-0.9c1.8-0.1,2.5,1.3,4.6,1.1c0-1.9-0.9-5.7-0.9-7.7C405.6,197.7,404.5,196.1,403.7,194.3z M145,205.7
		c2.8,1.1,10.9,1.6,13.4-1.4c1.9,2.1,3.7,1.1,7.1,1.4c10.3,1.1,11.3,17.9,17.1,24.8c0.3-3.6,3-4.6,6-3.4c-1.7-7.6-3.3-15.3-8.3-19.7
		c-3.3-2.2-5.8-5.1-9.4-8c-1.9-1.5-4.1-3.6-5.7-4.3c-4.4-1.9-6.4,0.5-9.7,2.8C152.2,200.4,147.3,202.4,145,205.7z M127.9,213.1
		c1.7,1.4,3.7,0.8,5.7,1.1c3.5,0.5,7,1.6,10.8,2c3.3,0.4,7.2,1.2,11.1,2c3.7,0.7,8.1,0.8,10.3,2c6.2,3.4,4.5,14,5.7,21.7
		c3.6,0.4,6.7-1.1,10-1.4c0.5-1.7-0.6-4.1-0.3-6.6c-3.8-8.3-6.7-17.4-12-24.2c-10.4-0.8-24,1.2-33.9,1.4
		C132.7,211.2,128.4,208.9,127.9,213.1z M76.6,297.1c13.2,3.2,19.7,13.1,25.6,23.6c4.3-3.4,6.6-9.8,10.3-14c1.5-1.7,3.8-4.3,6.6-4
		c-1.1,3.3-4.3,4.4-5.4,7.7c-0.4,0.5-1.2,0.7-1.7,1.1c-1.7,5.9-8.5,8.4-8,15.7c3.5-1.4,4.9-4.9,7.4-7.4c3.1-1.7,4.4-4.9,7.4-7.1
		c3.9-2.8,9.8-2.7,13.1-6.6c-1.9-7-1.7-16.8-0.3-24.2c-1.1-1.1-2.9-1.7-4-2.8c-2.3-6.1-1.9-17.5,0.9-23.4c0.2-1-0.4-1.1-0.3-2
		c1.6-3.8,3.9-6.9,5.7-10.5c-3.2-0.8-7.6-0.4-10-2c1-5.1,9.1,0.2,13.4-1.4c-0.2-3.2-2.4-4.4-2.6-7.7c3.1-0.2,2.9,4,4.6,6
		c1.8,2.2,4.9,1.9,7.7,3.1c1.6-1,2.1-3.2,4.6-3.4c0.4,2.1-2.2,3.4-2.6,6c-0.5,3.3,1.3,6.3,2.8,8.5c4-0.8,5.4-4.1,8.8-5.4
		c-0.6-5-0.6-10.6-1.4-15.4c-10.9-5.5-23.6-9.3-35-14.2c-2.6-0.1-4.2-1.7-6.6-0.6c-2.1,3.1-4.3,6.2-4.3,11.4
		c-4.1,5.6-5.1,15.3-8.3,21.6c0,4.3-2.8,7.7-3.4,12c-0.5,3-0.8,4.8-1.7,7.4c-1.6,4.7-3,10.6-5.4,14.2
		C90.2,290.1,82,290.8,76.6,297.1z M137.9,218.5c7.2,6,22.1,5.3,24.5,15.1c-0.1,3.7,0.4,7.9,0.6,11.7c2.8-0.2,4.5-1.4,6.6-2.3
		c-0.6-3.5-0.2-7.1-0.6-10.5c-0.3-2.5-0.7-6.4-1.7-8c-1.8-2.7-6.4-2-9.4-2.3c-1.7-0.2-3.8-1.3-6-1.7
		C147.6,219.7,142.3,219.2,137.9,218.5z M184.3,235.9c-1.6,0.5-0.4,2.2-1.1,4c1.4,1.3,3.8,1.2,5.7,0.9c0-0.8,0.1-1.6-0.3-2
		C185.8,239.2,185.2,237.3,184.3,235.9z M188.6,247c-2.8,0.4-7-0.7-10.3-0.3c0.5,3.2,1.9,5.5,3.7,7.4c6.8-1.6,11,2.4,11.1,9.1
		c-2,1.8-6.1,1.3-8.3,2.3c0.9,5,1.1,10.6,2,14.8c3.1-1.2,7.2-1.4,10.3,0c0.9,7.6-2,14-3.4,20.5c1.7,0,1.9-2.1,2.6-3.4
		c1.9-3.7,3.5-7.4,4-13.1c0.5-6.3-0.6-13.4-1.4-18.8c-0.5-1.9-1.6-3.6-1.1-5.7c-2-4.8-3.5-11.2-7.4-14.8c-0.2,0-0.4,0-0.6,0
		C188.5,244.9,189,246.3,188.6,247z M168.1,250.1c-0.4,1.8,0.1,4,0.9,5.4c-0.1,1.5-1.2,2.1-1.4,3.4c-4.8,1.3-8.4,3.7-12.5,5.7
		c-1.7-1-2.2-3.1-2.8-5.1c-5.4-2.1-5.9,4.7-9.4,6.3c-0.8-2.5,2-5.6,4-8c1-1.2,4.5-3.2,1.4-5.1c-2.8,1.2-3.3,4.7-4.8,7.1
		c-1.3,0.9-2.3,2.2-3.4,3.4c-6.2-0.7-4.4-7.2-3.4-11.4c-2.8-0.4-3.9,4.3-4.6,7.7c-0.9,4.5-1.2,10.9-0.6,14.8c3.8,1,9.4,0.9,12.8-0.6
		c0.4-4.8,6.1-6.2,8.8-2.6c7.5,0,14.4,1.6,23.1,0.6c-0.2-1.7-0.5-3.5,0.9-4.3c1.5,0,1,2,2.6,2c0.5-0.7-0.1-2.2-0.6-2.8
		c0.3-1.3,1.6-1.4,2-2.6C178.7,257.7,178,245.9,168.1,250.1z M407.6,271.5c-4.7,1.3-7.7,4.2-10,8c2,0.1,2.5-1.8,4.6-0.9
		C404.5,276.7,406.9,274.9,407.6,271.5z M371.2,272.3c-0.7,1.2-2.1,1.7-3.4,2.3c-0.1,3.8,0.7,6.2-2.8,7.7c0.1,1.3,2.2,4,0.9,6
		c2.6,1.8,9.3,2.9,12.5-0.3c2.1-2.1,4.4-8.9-0.9-6.8c-0.6,2.1-3,2.5-4,4.3c-1.7-0.2-3.4-0.9-3.7-3.4c-0.1-0.7,0.4-1.6,0.3-2.3
		c-0.2-1.4-1.5-2.4-1.1-3.7c0.5-1.8,2.7-2.2,4.3-2.9c1.3,0.4,0.9,2.5,3.1,2C375.9,272.1,373.1,272.7,371.2,272.3z M387.7,280.9
		c-2.2,9.8-11.1,16.4-21.1,14.2c0.2,4.8,3.7,8.1,10.3,7.1c1.3-1.1,1.7-3.1,2-5.1c2.7-0.7,2.4-4.4,5.7-4.6c0.7-1,1-2.2,0.9-4
		c4-1.7,8.4-3,9.7-7.4C392.4,280.2,390.9,282.5,387.7,280.9z M183.7,289.4c-0.3,0-0.6,0-0.9,0c-0.8,2.3-1.3,6-2.8,8.5
		c-1,1.7-3.2,2.4-2.8,4.8c1.7,0.9,2.1-1.2,2.8-2.3c1.9-2.8,3.2-5.9,4-10C184.1,290.1,183.7,290,183.7,289.4z M354.1,307.4
		c0.7-1.2,0.5-2.2-0.3-3.1c0.7-1.1,0.9-2.7,2-3.4c-1.4-1.5-0.5-4-1.4-5.4c-0.3,0-0.5,0.1-0.6,0.3c-3,2-1.4,4.9-0.9,8
		C353.2,305.2,352.2,307.2,354.1,307.4z M192.9,305.9c2.5,1.2,7.9,0.5,11.7-0.3c1.1-0.2,2.5-0.4,2.8-1.4c-3-1.7-5.1-4.4-7.4-6.8
		c-1.8,1.9-2.6,4.8-4.6,6.6C194.1,304,192.6,305.3,192.9,305.9z M27.1,314.2c-1.3,2.8,1.2,2.8,3.1,5.1c1,1.3,1.9,3.4,4,3.4
		c2.5,0,4.4-2.6,6-4.6C37.4,315.6,31.7,312.3,27.1,314.2z M256.4,399.4c-0.5,5,1,10.3,0.6,16.2c4.7,1.4,10.1-0.2,15.1-1.1
		c11.7-2.1,22.9-5.1,33.9-6.6c0.8-0.1,1.8,0.2,2.6,0c0.7-0.2,1.7-1.2,2.6-1.4c1-0.3,2.4,0.2,3.4,0c2.6-0.6,6.1-2.2,6-4
		c-0.1-2.5-2.1-4.8-4-8.3c-1.7-3.3-2.5-6.5-3.7-8.8c-0.6-1.2-2.2-2-2-3.4c0.4-2.5,4.3-2.2,6.8-1.7c6.8,1.2,14.3,4.6,20.8,6.8
		c8,2.7,9.3-2.2,12.8-7.4c1-1.5,2.7-3.1,4-4.8c2.6-3.4,5-7.3,8-9.7c4.1-3.2,10-5,14.2-8.3c3-2.3,4.3-3.7,6.6-6.8
		c0.8-1.1,2.2-2.3,2.3-3.7c0.2-3-4-8.5-5.4-11.1c-0.7-1.4-2-3.5-2.8-5.4c-0.7-1.5-1.7-4.6-3.1-4.8c-2-0.4-4.2,1.9-6.6,2
		c-2.6,0.1-5.6-0.8-7.4-1.4c-4.1-1.3-6.2-4.6-9.7-7.4c-0.3-0.2-0.5-0.5-0.9-0.6c-0.2,0-0.4,0-0.6,0c-2.8,9.5-9.4,15.3-14.5,22.5
		c-7.5,6.3-13.6,14-22.2,19.1c-6.6,6-13.8,11.4-20.8,17.1c-2.2,1.9-5.3,3.1-6.8,5.7c-3.5,1.8-6.9,3.5-9.4,6.3
		C268.9,391.4,264.3,397.1,256.4,399.4z M96.3,318.8c0.3,2.6,1,4.8,2.6,6.3C102.8,324.2,99.4,316.6,96.3,318.8z M98.9,333.6
		c-1,0.1-1.1,1-1.4,1.7C98.4,336,99.5,334.4,98.9,333.6z"/>
	<path d="M274.3,152.1c7.3-0.8,13.6,3.7,19.1,4.8c0.5,0.4,0.2,1.7,1.1,1.7c3.3-0.7,4.3-0.6,7.1,0c0.1,1,0.7,1.4,0.6,2.6
		c0.6-0.3,1.4-0.9,2-0.3c0.6,0.9-1.3,1.2-1.1,2.6c0,1.1,1.8,0.4,1.7,1.7c-1.2,2.7-4.6,5.2-8.5,6c-2.2-0.5-2.6-2.9-4.6-3.7
		c-2.2,1.7,1,2.6,0.6,5.1c-3.8,1.6-9.8,1.7-13.4,0.6c-2.4-3-1.9-7.9,0-10.8c-7.9-3.7-13.4,3.3-16,8c0,0.6,0,1.1,0,1.7
		c-0.9,0.9-2.1,1.2-3.7,0.9c-0.5-3.3,3.2-5.7,5.4-8.3c3.6-4.1,7.1-6.5,14-6.6c2.6,0,5.8,1.6,7.4-0.9c-4.1-1.2-7.6-3-13.4-2.6
		c-1.9,0.6-3.4,2.4-5.4,2C266.4,154.3,272.1,152.4,274.3,152.1z M294.8,160.7c0.3,1.1,1.8,0.3,2.3,0
		C296.9,159.6,295.3,160.3,294.8,160.7z M280.6,163.2c-2.6,3.4-0.2,8.4,3.1,8.8c3.5,0.5,6.7-3.3,5.4-6.6
		C288.1,162.9,284,162,280.6,163.2z"/>
</g>
</svg>
