<?xml version="1.0" encoding="utf-8"?>
<!-- Generator: Adobe Illustrator 18.1.0, SVG Export Plug-In . SVG Version: 6.00 Build 0)  -->
<svg version="1.1" id="Layer_1" xmlns="http://www.w3.org/2000/svg" xmlns:xlink="http://www.w3.org/1999/xlink" x="0px" y="0px"
	 viewBox="0 0 153.1 51.7" enable-background="new 0 0 153.1 51.7" xml:space="preserve">
<g>
	<path fill="#FFFFFF" stroke="#FFFFFF" stroke-width="1.1589" stroke-miterlimit="10" d="M85.6,2h20.9c5.8,0,10.3,1.3,13.3,3.8
		c2.5,2.1,3.9,5,3.9,8.6v0.1c0,6.1-4,9.9-9.8,11.6l9.3,23.6h-11.8l-7.9-22.2h-0.1h-7.8v22.1H85.6V21.2V2z M105.9,21.1
		c4.9,0,7.7-2.1,7.7-5.3v-1c0-3.5-3-5.4-7.9-5.4h-10v11.6H105.9z"/>
	<rect x="71.1" y="2" fill="#FFFFFF" stroke="#FFFFFF" stroke-width="1.1562" stroke-miterlimit="10" width="9.1" height="47.6"/>
	<rect x="128" y="2" fill="#FFFFFF" stroke="#FFFFFF" stroke-width="1.1562" stroke-miterlimit="10" width="9.1" height="47.6"/>
	<polygon fill="#FFFFFF" stroke="#FFFFFF" stroke-width="1.5466" stroke-miterlimit="10" points="66.2,10.1 66.2,43 55.5,26.1 	"/>
	<g>
		<g>
			<path fill="#FFFFFF" d="M149.5,6.5c-0.1,0.6-0.3,1-0.7,1.3c-0.4,0.3-0.9,0.5-1.4,0.5c-0.7,0-1.2-0.2-1.6-0.7
				c-0.4-0.5-0.6-1.1-0.6-1.8c0-0.8,0.2-1.4,0.6-1.9c0.4-0.5,0.9-0.7,1.6-0.7c0.6,0,1.1,0.2,1.4,0.5c0.4,0.3,0.6,0.7,0.7,1.3h-1
				c0-0.3-0.1-0.5-0.3-0.6c-0.2-0.2-0.4-0.2-0.7-0.2c-0.4,0-0.7,0.2-0.9,0.4c-0.2,0.3-0.3,0.7-0.3,1.2c0,0.5,0.1,0.9,0.3,1.2
				c0.2,0.3,0.5,0.4,0.9,0.4c0.3,0,0.5-0.1,0.7-0.3c0.2-0.2,0.3-0.4,0.3-0.7H149.5z"/>
		</g>
		<ellipse fill="none" stroke="#FFFFFF" stroke-width="0.3572" cx="147.4" cy="5.8" rx="3.6" ry="3.8"/>
	</g>
	<path fill="#FFFFFF" stroke="#FFFFFF" stroke-width="1.3061" stroke-miterlimit="10" d="M39.2,21.9L52.2,2h14l-16.2,24L66,49.7
		H52.2l-13-19.5L39.2,21.9z"/>
	<path fill="#FFFFFF" d="M15.1,50.5H1.5l20.2-24.2L1.1,1.6h13.4l19.4,24.6L15.1,50.5z"/>
	<path fill="#FFFFFF" d="M33.1,50.5H19.4l18.9-24.2l-19-24.6H33l17.7,24.6L33.1,50.5z"/>
</g>
</svg>
